<svg xmlns="http://www.w3.org/2000/svg" viewBox="0 0 4513.79 383.03"><defs><style>.cls-1{fill:#bdc9f9;}.cls-2{fill:#85996a;}.cls-19,.cls-3{opacity:0.1;}.cls-11,.cls-16,.cls-3{isolation:isolate;}.cls-4{fill:none;}.cls-5{fill:#e6e6e6;}.cls-6{fill:#f2f2f2;}.cls-7{fill:#3f3d56;}.cls-8{fill:#ccc;}.cls-9{fill:#6a895c;}.cls-10{fill:#647f57;}.cls-11{opacity:0.2;}.cls-12{fill:#2f2e41;}.cls-13{fill:#f0f0f0;}.cls-14{fill:#4a4a66;}.cls-15{fill:#fff;}.cls-16{opacity:0.5;}.cls-17{fill:#6c63ff;}.cls-18{fill:#262635;}.cls-20{fill:#67647e;}</style></defs><g id="Warstwa_2" data-name="Warstwa 2"><g id="bg"><g id="bg-2" data-name="bg"><rect class="cls-1" width="4513.79" height="383.03"/><path class="cls-2" d="M1244.07,220c.17,25.47-25.21,46.19-25.21,46.19s-25.64-20.56-25.81-46S1218.26,174,1218.26,174,1243.9,194.56,1244.07,220Z"/><path class="cls-3" d="M1244,218.48c.16,25.43-25.17,46.12-25.17,46.12s-25.6-20.53-25.77-46,25.17-46.11,25.17-46.11S1243.86,193.06,1244,218.48Z"/><path class="cls-4" d="M3049.54,161.52a10.25,10.25,0,0,0-2.17-2h4.53A7.47,7.47,0,0,0,3049.54,161.52Z"/><path class="cls-4" d="M3034.75,159.48h.78c-.17.12-.34.23-.5.36Z"/><path class="cls-5" d="M3055.52,158.54a7.44,7.44,0,0,1,3.63.94h-7.25A7.37,7.37,0,0,1,3055.52,158.54Z"/><path class="cls-5" d="M3041.45,157.6a10.21,10.21,0,0,1,5.92,1.88h-11.84A10.28,10.28,0,0,1,3041.45,157.6Z"/><path class="cls-5" d="M2961.73,145.73a19.23,19.23,0,0,1,37.73-4.06l.71,0a19.24,19.24,0,0,1,18.45,13.82,13.59,13.59,0,0,1,16.13,4h-60a13,13,0,0,1-13-13c0-.17,0-.34,0-.5S2961.73,145.82,2961.73,145.73Z"/><path class="cls-6" d="M3258.47,199.32s23.63,22.64,23.63,40.43-10.58,24-23.63,24-23.62-6.21-23.62-24S3258.47,199.32,3258.47,199.32Z"/><path class="cls-2" d="M3173.68,237.51c.08,17.72-12.38,32.14-12.38,32.14s-12.59-14.31-12.68-32S3161,205.5,3161,205.5,3173.6,219.8,3173.68,237.51Z"/><path class="cls-3" d="M3173.83,237.32c.08,17.82-12.45,32.33-12.45,32.33s-12.67-14.39-12.76-32.21,12.46-32.32,12.46-32.32S3173.75,219.51,3173.83,237.32Z"/><path class="cls-7" d="M2602.16,199.27A191.85,191.85,0,0,1,2640,277.08l-.84.19"/><rect class="cls-7" x="2583.22" y="246.01" width="0.86" height="34.13"/><path class="cls-2" d="M2592.06,250.36c.05,11.93-8.34,21.64-8.34,21.64s-8.49-9.63-8.54-21.57,8.34-21.64,8.34-21.64S2592,238.42,2592.06,250.36Z"/><path class="cls-3" d="M2592.06,250.36c.05,11.93-8.34,21.64-8.34,21.64s-8.49-9.63-8.54-21.57,8.34-21.64,8.34-21.64S2592,238.42,2592.06,250.36Z"/><path class="cls-7" d="M2139.84,276.34a8.71,8.71,0,0,0,3.24,4.38,7.48,7.48,0,1,0-3.24-4.38Z"/><path class="cls-2" d="M2140.92,275.76a8.73,8.73,0,0,1,2.25,5,7.48,7.48,0,0,1-7.27-7.08A8.67,8.67,0,0,1,2140.92,275.76Z"/><path class="cls-7" d="M2493.21,276.34a8.71,8.71,0,0,0,3.24,4.38,7.48,7.48,0,1,0-3.24-4.38Z"/><path class="cls-2" d="M2494.29,275.76a8.73,8.73,0,0,1,2.25,5,7.48,7.48,0,0,1-7.27-7.08A8.67,8.67,0,0,1,2494.29,275.76Z"/><polygon class="cls-7" points="2144.81 256 2143.02 253.03 2159.7 238.73 2202.6 238.73 2202.6 242.9 2187.11 259.58 2169.24 263.15 2144.81 256"/><polygon class="cls-8" points="2209.98 247.12 2209.98 237.8 2204.36 237.8 2204.36 240.74 2202.6 238.73 2188.3 253.03 2185.92 255.41 2182.94 267.32 2188.3 280.43 2215.7 280.43 2215.7 253.62 2209.98 247.12"/><rect class="cls-6" x="2143.02" y="253.03" width="45.28" height="27.4"/><rect class="cls-7" x="2172.51" y="261.66" width="9.53" height="8.34"/><rect class="cls-8" x="2160.3" y="261.37" width="8.34" height="19.06"/><polygon class="cls-7" points="2150.77 264.35 2150.77 261.37 2147.19 261.37 2147.19 264.35 2150.47 264.35 2150.77 264.35"/><polygon class="cls-7" points="2150.47 266.73 2147.19 266.73 2147.19 269.71 2150.77 269.71 2150.77 266.73 2150.47 266.73"/><rect class="cls-7" x="2153.15" y="261.37" width="3.57" height="2.98"/><rect class="cls-7" x="2153.15" y="266.73" width="3.57" height="2.98"/><polygon class="cls-7" points="2201.11 264.64 2201.11 261.66 2197.53 261.66 2197.53 264.64 2200.81 264.64 2201.11 264.64"/><polygon class="cls-7" points="2200.81 267.03 2197.53 267.03 2197.53 270 2201.11 270 2201.11 267.03 2200.81 267.03"/><rect class="cls-7" x="2203.49" y="261.66" width="3.57" height="2.98"/><rect class="cls-7" x="2203.49" y="267.03" width="3.57" height="2.98"/><polygon class="cls-7" points="2317.17 256 2315.38 253.03 2332.06 238.73 2374.96 238.73 2374.96 242.9 2359.47 259.58 2341.59 263.15 2317.17 256"/><polygon class="cls-8" points="2382.34 247.12 2382.34 237.8 2376.72 237.8 2376.72 240.74 2374.96 238.73 2360.66 253.03 2358.28 255.41 2355.3 267.32 2360.66 280.43 2388.06 280.43 2388.06 253.62 2382.34 247.12"/><rect class="cls-6" x="2315.38" y="253.03" width="45.28" height="27.4"/><rect class="cls-7" x="2344.87" y="261.66" width="9.53" height="8.34"/><rect class="cls-8" x="2332.66" y="261.37" width="8.34" height="19.06"/><polygon class="cls-7" points="2323.13 264.35 2323.13 261.37 2319.55 261.37 2319.55 264.35 2322.83 264.35 2323.13 264.35"/><polygon class="cls-7" points="2322.83 266.73 2319.55 266.73 2319.55 269.71 2323.13 269.71 2323.13 266.73 2322.83 266.73"/><rect class="cls-7" x="2325.51" y="261.37" width="3.57" height="2.98"/><rect class="cls-7" x="2325.51" y="266.73" width="3.57" height="2.98"/><polygon class="cls-7" points="2373.47 264.64 2373.47 261.66 2369.89 261.66 2369.89 264.64 2373.17 264.64 2373.47 264.64"/><polygon class="cls-7" points="2373.17 267.03 2369.89 267.03 2369.89 270 2373.47 270 2373.47 267.03 2373.17 267.03"/><rect class="cls-7" x="2375.85" y="261.66" width="3.57" height="2.98"/><rect class="cls-7" x="2375.85" y="267.03" width="3.57" height="2.98"/><polygon class="cls-7" points="2236.55 205.96 2233.57 203.58 2250.26 188.69 2292.55 188.69 2292.55 201.79 2265.15 220.26 2236.55 205.96"/><polygon class="cls-8" points="2300.26 197.04 2300.26 188.99 2294.65 188.99 2294.65 190.96 2292.55 188.69 2278.85 203.58 2273.49 207.16 2265.18 267.89 2277.71 280.43 2306.85 280.43 2306.85 204.18 2300.26 197.04"/><rect class="cls-6" x="2233.57" y="203.58" width="45.28" height="76.85"/><rect class="cls-8" x="2251.15" y="261.66" width="8.34" height="18.77"/><polygon class="cls-7" points="2242.21 267.03 2242.21 264.05 2238.64 264.05 2238.64 267.03 2241.91 267.03 2242.21 267.03"/><polygon class="cls-7" points="2241.91 269.41 2238.64 269.41 2238.64 272.39 2242.21 272.39 2242.21 269.41 2241.91 269.41"/><rect class="cls-7" x="2244.6" y="264.05" width="3.57" height="2.98"/><rect class="cls-7" x="2244.6" y="269.41" width="3.57" height="2.98"/><polygon class="cls-7" points="2266.64 267.03 2266.64 264.05 2263.06 264.05 2263.06 267.03 2266.34 267.03 2266.64 267.03"/><polygon class="cls-7" points="2266.34 269.41 2263.06 269.41 2263.06 272.39 2266.64 272.39 2266.64 269.41 2266.34 269.41"/><rect class="cls-7" x="2269.02" y="264.05" width="3.57" height="2.98"/><rect class="cls-7" x="2269.02" y="269.41" width="3.57" height="2.98"/><polygon class="cls-7" points="2291.66 207.45 2291.66 204.47 2288.08 204.47 2288.08 207.45 2291.36 207.45 2291.66 207.45"/><polygon class="cls-7" points="2291.36 209.84 2288.08 209.84 2288.08 212.81 2291.66 212.81 2291.66 209.84 2291.36 209.84"/><rect class="cls-7" x="2294.04" y="204.47" width="3.57" height="2.98"/><rect class="cls-7" x="2294.04" y="209.84" width="3.57" height="2.98"/><polygon class="cls-7" points="2291.66 224.13 2291.66 221.16 2288.08 221.16 2288.08 224.13 2291.36 224.13 2291.66 224.13"/><polygon class="cls-7" points="2291.36 226.52 2288.08 226.52 2288.08 229.5 2291.66 229.5 2291.66 226.52 2291.36 226.52"/><rect class="cls-7" x="2294.04" y="221.15" width="3.57" height="2.98"/><rect class="cls-7" x="2294.04" y="226.52" width="3.57" height="2.98"/><polygon class="cls-7" points="2291.66 240.81 2291.66 237.84 2288.08 237.84 2288.08 240.81 2291.36 240.81 2291.66 240.81"/><polygon class="cls-7" points="2291.36 243.2 2288.08 243.2 2288.08 246.18 2291.66 246.18 2291.66 243.2 2291.36 243.2"/><rect class="cls-7" x="2294.04" y="237.84" width="3.57" height="2.98"/><rect class="cls-7" x="2294.04" y="243.2" width="3.57" height="2.98"/><polygon class="cls-7" points="2291.66 257.49 2291.66 254.51 2288.08 254.51 2288.08 257.49 2291.36 257.49 2291.66 257.49"/><polygon class="cls-7" points="2291.36 259.88 2288.08 259.88 2288.08 262.86 2291.66 262.86 2291.66 259.88 2291.36 259.88"/><rect class="cls-7" x="2294.04" y="254.52" width="3.57" height="2.98"/><rect class="cls-7" x="2294.04" y="259.88" width="3.57" height="2.98"/><rect class="cls-7" x="2238.64" y="207.45" width="34.55" height="7.15"/><rect class="cls-7" x="2238.64" y="221.75" width="34.55" height="7.15"/><rect class="cls-7" x="2238.64" y="236.05" width="34.55" height="7.15"/><rect class="cls-7" x="2238.64" y="250.35" width="34.55" height="7.15"/><polygon class="cls-7" points="2499.64 205.96 2496.66 203.58 2513.34 188.69 2555.64 188.69 2555.64 201.79 2528.24 220.26 2499.64 205.96"/><polygon class="cls-8" points="2563.35 197.04 2563.35 188.99 2557.74 188.99 2557.74 190.96 2555.64 188.69 2541.94 203.58 2536.58 207.16 2528.26 267.89 2540.8 280.43 2569.94 280.43 2569.94 204.18 2563.35 197.04"/><rect class="cls-6" x="2496.66" y="203.58" width="45.28" height="76.85"/><rect class="cls-8" x="2514.24" y="261.66" width="8.34" height="18.77"/><polygon class="cls-7" points="2505.3 267.03 2505.3 264.05 2501.72 264.05 2501.72 267.03 2505 267.03 2505.3 267.03"/><polygon class="cls-7" points="2505 269.41 2501.72 269.41 2501.72 272.39 2505.3 272.39 2505.3 269.41 2505 269.41"/><rect class="cls-7" x="2507.68" y="264.05" width="3.57" height="2.98"/><rect class="cls-7" x="2507.68" y="269.41" width="3.57" height="2.98"/><polygon class="cls-7" points="2529.72 267.03 2529.72 264.05 2526.15 264.05 2526.15 267.03 2529.43 267.03 2529.72 267.03"/><polygon class="cls-7" points="2529.43 269.41 2526.15 269.41 2526.15 272.39 2529.72 272.39 2529.72 269.41 2529.43 269.41"/><rect class="cls-7" x="2532.11" y="264.05" width="3.57" height="2.98"/><rect class="cls-7" x="2532.11" y="269.41" width="3.57" height="2.98"/><polygon class="cls-7" points="2554.74 207.45 2554.74 204.47 2551.17 204.47 2551.17 207.45 2554.45 207.45 2554.74 207.45"/><polygon class="cls-7" points="2554.45 209.84 2551.17 209.84 2551.17 212.81 2554.74 212.81 2554.74 209.84 2554.45 209.84"/><rect class="cls-7" x="2557.13" y="204.47" width="3.57" height="2.98"/><rect class="cls-7" x="2557.13" y="209.84" width="3.57" height="2.98"/><polygon class="cls-7" points="2554.74 224.13 2554.74 221.16 2551.17 221.16 2551.17 224.13 2554.45 224.13 2554.74 224.13"/><polygon class="cls-7" points="2554.45 226.52 2551.17 226.52 2551.17 229.5 2554.74 229.5 2554.74 226.52 2554.45 226.52"/><rect class="cls-7" x="2557.13" y="221.15" width="3.57" height="2.98"/><rect class="cls-7" x="2557.13" y="226.52" width="3.57" height="2.98"/><polygon class="cls-7" points="2554.74 240.81 2554.74 237.84 2551.17 237.84 2551.17 240.81 2554.45 240.81 2554.74 240.81"/><polygon class="cls-7" points="2554.45 243.2 2551.17 243.2 2551.17 246.18 2554.74 246.18 2554.74 243.2 2554.45 243.2"/><rect class="cls-7" x="2557.13" y="237.84" width="3.57" height="2.98"/><rect class="cls-7" x="2557.13" y="243.2" width="3.57" height="2.98"/><polygon class="cls-7" points="2554.74 257.49 2554.74 254.51 2551.17 254.51 2551.17 257.49 2554.45 257.49 2554.74 257.49"/><polygon class="cls-7" points="2554.45 259.88 2551.17 259.88 2551.17 262.86 2554.74 262.86 2554.74 259.88 2554.45 259.88"/><rect class="cls-7" x="2557.13" y="254.52" width="3.57" height="2.98"/><rect class="cls-7" x="2557.13" y="259.88" width="3.57" height="2.98"/><rect class="cls-7" x="2501.73" y="207.45" width="34.55" height="7.15"/><rect class="cls-7" x="2501.73" y="221.75" width="34.55" height="7.15"/><rect class="cls-7" x="2501.73" y="236.05" width="34.55" height="7.15"/><rect class="cls-7" x="2501.73" y="250.35" width="34.55" height="7.15"/><polygon class="cls-7" points="2595.11 205.96 2592.13 203.58 2608.81 188.69 2651.11 188.69 2651.11 201.79 2623.7 220.26 2595.11 205.96"/><polygon class="cls-8" points="2658.82 197.04 2658.82 188.99 2653.2 188.99 2653.2 190.96 2651.11 188.69 2637.4 203.58 2632.04 207.16 2623.73 267.89 2636.27 280.43 2665.4 280.43 2665.4 204.18 2658.82 197.04"/><rect class="cls-6" x="2592.13" y="203.58" width="45.28" height="76.85"/><rect class="cls-8" x="2609.7" y="261.66" width="8.34" height="18.77"/><polygon class="cls-7" points="2600.77 267.03 2600.77 264.05 2597.19 264.05 2597.19 267.03 2600.47 267.03 2600.77 267.03"/><polygon class="cls-7" points="2600.47 269.41 2597.19 269.41 2597.19 272.39 2600.77 272.39 2600.77 269.41 2600.47 269.41"/><rect class="cls-7" x="2603.15" y="264.05" width="3.57" height="2.98"/><rect class="cls-7" x="2603.15" y="269.41" width="3.57" height="2.98"/><polygon class="cls-7" points="2625.19 267.03 2625.19 264.05 2621.62 264.05 2621.62 267.03 2624.89 267.03 2625.19 267.03"/><polygon class="cls-7" points="2624.89 269.41 2621.62 269.41 2621.62 272.39 2625.19 272.39 2625.19 269.41 2624.89 269.41"/><rect class="cls-7" x="2627.57" y="264.05" width="3.57" height="2.98"/><rect class="cls-7" x="2627.57" y="269.41" width="3.57" height="2.98"/><polygon class="cls-7" points="2650.21 207.45 2650.21 204.47 2646.64 204.47 2646.64 207.45 2649.91 207.45 2650.21 207.45"/><polygon class="cls-7" points="2649.91 209.84 2646.64 209.84 2646.64 212.81 2650.21 212.81 2650.21 209.84 2649.91 209.84"/><rect class="cls-7" x="2652.6" y="204.47" width="3.57" height="2.98"/><rect class="cls-7" x="2652.6" y="209.84" width="3.57" height="2.98"/><polygon class="cls-7" points="2650.21 224.13 2650.21 221.16 2646.64 221.16 2646.64 224.13 2649.91 224.13 2650.21 224.13"/><polygon class="cls-7" points="2649.91 226.52 2646.64 226.52 2646.64 229.5 2650.21 229.5 2650.21 226.52 2649.91 226.52"/><rect class="cls-7" x="2652.6" y="221.15" width="3.57" height="2.98"/><rect class="cls-7" x="2652.6" y="226.52" width="3.57" height="2.98"/><polygon class="cls-7" points="2650.21 240.81 2650.21 237.84 2646.64 237.84 2646.64 240.81 2649.91 240.81 2650.21 240.81"/><polygon class="cls-7" points="2649.91 243.2 2646.64 243.2 2646.64 246.18 2650.21 246.18 2650.21 243.2 2649.91 243.2"/><rect class="cls-7" x="2652.6" y="237.84" width="3.57" height="2.98"/><rect class="cls-7" x="2652.6" y="243.2" width="3.57" height="2.98"/><polygon class="cls-7" points="2650.21 257.49 2650.21 254.51 2646.64 254.51 2646.64 257.49 2649.91 257.49 2650.21 257.49"/><polygon class="cls-7" points="2649.91 259.88 2646.64 259.88 2646.64 262.86 2650.21 262.86 2650.21 259.88 2649.91 259.88"/><rect class="cls-7" x="2652.6" y="254.52" width="3.57" height="2.98"/><rect class="cls-7" x="2652.6" y="259.88" width="3.57" height="2.98"/><rect class="cls-7" x="2597.19" y="207.45" width="34.55" height="7.15"/><rect class="cls-7" x="2597.19" y="221.75" width="34.55" height="7.15"/><rect class="cls-7" x="2597.19" y="236.05" width="34.55" height="7.15"/><rect class="cls-7" x="2597.19" y="250.35" width="34.55" height="7.15"/><rect class="cls-7" x="2.04" y="280.03" width="4009.06" height="1.08"/><rect class="cls-7" x="2224.24" y="246.01" width="0.86" height="34.13"/><path class="cls-2" d="M2233.07,250.36c.06,11.93-8.34,21.64-8.34,21.64s-8.48-9.63-8.54-21.57,8.34-21.64,8.34-21.64S2233,238.42,2233.07,250.36Z"/><path class="cls-7" d="M1840.54,275.81a8.65,8.65,0,0,0,3.24,4.38,7.48,7.48,0,1,0-3.24-4.38Z"/><path class="cls-2" d="M1841.62,275.23a8.73,8.73,0,0,1,2.25,5,7.48,7.48,0,0,1-7.27-7.08A8.67,8.67,0,0,1,1841.62,275.23Z"/><path class="cls-7" d="M1846.5,275.36a8.67,8.67,0,0,0-2.67,4.75,7.5,7.5,0,0,0,7.85-6.44A8.68,8.68,0,0,0,1846.5,275.36Z"/><path class="cls-2" d="M1847.47,276.1a8.72,8.72,0,0,1-3.6,4.09,7.48,7.48,0,0,1,3.47-9.54A8.69,8.69,0,0,1,1847.47,276.1Z"/><path class="cls-7" d="M1395.61,275.89a8.72,8.72,0,0,0,3.23,4.38,7.51,7.51,0,1,0-3.23-4.38Z"/><path class="cls-2" d="M1396.68,275.31a8.65,8.65,0,0,1,2.25,5,7.5,7.5,0,0,1-7.27-7.08A8.67,8.67,0,0,1,1396.68,275.31Z"/><path class="cls-7" d="M1401.56,275.43a8.7,8.7,0,0,0-2.67,4.75,7.48,7.48,0,0,0,7.85-6.43A8.73,8.73,0,0,0,1401.56,275.43Z"/><path class="cls-2" d="M1402.53,276.18a8.72,8.72,0,0,1-3.6,4.09,7.5,7.5,0,0,1,3.48-9.54A8.72,8.72,0,0,1,1402.53,276.18Z"/><polygon class="cls-7" points="1910.11 256.12 1908.32 253.14 1925 238.84 1967.89 238.84 1967.89 243.01 1952.4 259.69 1934.53 263.27 1910.11 256.12"/><polygon class="cls-8" points="1975.28 247.24 1975.28 237.91 1969.66 237.91 1969.66 240.85 1967.89 238.84 1953.6 253.14 1951.21 255.53 1948.23 267.44 1953.6 280.55 1981 280.55 1981 253.74 1975.28 247.24"/><rect class="cls-6" x="1908.32" y="253.14" width="45.28" height="27.4"/><rect class="cls-7" x="1937.81" y="261.78" width="9.53" height="8.34"/><rect class="cls-8" x="1925.6" y="261.48" width="8.34" height="19.06"/><polygon class="cls-7" points="1916.06 264.46 1916.06 261.48 1912.49 261.48 1912.49 264.46 1915.77 264.46 1916.06 264.46"/><polygon class="cls-7" points="1915.77 266.84 1912.49 266.84 1912.49 269.82 1916.06 269.82 1916.06 266.84 1915.77 266.84"/><rect class="cls-7" x="1918.45" y="261.48" width="3.57" height="2.98"/><rect class="cls-7" x="1918.45" y="266.84" width="3.57" height="2.98"/><polygon class="cls-7" points="1966.4 264.76 1966.4 261.78 1962.83 261.78 1962.83 264.76 1966.11 264.76 1966.4 264.76"/><polygon class="cls-7" points="1966.11 267.14 1962.83 267.14 1962.83 270.12 1966.4 270.12 1966.4 267.14 1966.11 267.14"/><rect class="cls-7" x="1968.79" y="261.78" width="3.57" height="2.98"/><rect class="cls-7" x="1968.79" y="267.14" width="3.57" height="2.98"/><rect class="cls-7" x="1895.08" y="243.05" width="0.94" height="37.11"/><path class="cls-2" d="M1904.69,247.78c.06,13-9.07,23.53-9.07,23.53s-9.22-10.47-9.28-23.45,9.07-23.54,9.07-23.54S1904.63,234.8,1904.69,247.78Z"/><rect class="cls-7" x="1871.96" y="253.8" width="0.67" height="26.36"/><path class="cls-9" d="M1878.78,257.15c0,9.22-6.44,16.72-6.44,16.72s-6.55-7.44-6.6-16.66,6.45-16.71,6.45-16.71S1878.74,247.94,1878.78,257.15Z"/><rect class="cls-7" x="1861.19" y="239.54" width="1.03" height="40.61"/><path class="cls-2" d="M1871.71,244.72c.06,14.2-9.93,25.76-9.93,25.76s-10.1-11.47-10.16-25.67,9.92-25.76,9.92-25.76S1871.64,230.51,1871.71,244.72Z"/><rect class="cls-7" x="1648.5" y="239.54" width="1.03" height="40.61"/><path class="cls-2" d="M1659,244.71c.07,14.2-9.93,25.76-9.93,25.76S1639,259,1638.93,244.8s9.93-25.76,9.93-25.76S1659,230.51,1659,244.71Z"/><rect class="cls-7" x="1667.35" y="231.86" width="1.21" height="47.93"/><path class="cls-9" d="M1679.76,238c.08,16.76-11.71,30.4-11.71,30.4s-11.92-13.53-12-30.29,11.71-30.4,11.71-30.4S1679.69,221.21,1679.76,238Z"/><rect class="cls-7" x="2093.7" y="246.38" width="0.86" height="34.05"/><path class="cls-2" d="M2102.52,250.72c.05,11.9-8.32,21.6-8.32,21.6s-8.47-9.62-8.53-21.53,8.33-21.6,8.33-21.6S2102.46,238.81,2102.52,250.72Z"/><rect class="cls-7" x="2109.5" y="239.94" width="1.02" height="40.19"/><path class="cls-9" d="M2119.91,245.06c.06,14.06-9.82,25.49-9.82,25.49s-10-11.34-10.06-25.4,9.82-25.49,9.82-25.49S2119.84,231,2119.91,245.06Z"/><rect class="cls-7" x="2308.68" y="254.27" width="0.65" height="25.87"/><path class="cls-9" d="M2315.38,257.56c0,9.05-6.32,16.41-6.32,16.41s-6.43-7.3-6.47-16.35,6.32-16.41,6.32-16.41S2315.34,248.52,2315.38,257.56Z"/><rect class="cls-7" x="2570.88" y="250.73" width="0.74" height="29.4"/><path class="cls-2" d="M2578.49,254.48c.05,10.28-7.19,18.65-7.19,18.65s-7.31-8.3-7.35-18.58,7.18-18.65,7.18-18.65S2578.44,244.2,2578.49,254.48Z"/><rect class="cls-7" x="2887.47" y="233.68" width="1.18" height="46.75"/><path class="cls-2" d="M2899.57,239.64c.08,16.34-11.42,29.65-11.42,29.65s-11.62-13.2-11.7-29.55,11.43-29.65,11.43-29.65S2899.5,223.29,2899.57,239.64Z"/><path class="cls-3" d="M2899.57,239.64c.08,16.34-11.42,29.65-11.42,29.65s-11.62-13.2-11.7-29.55,11.43-29.65,11.43-29.65S2899.5,223.29,2899.57,239.64Z"/><rect class="cls-7" x="2870.56" y="240.16" width="1.02" height="40.27"/><path class="cls-9" d="M2881,245.29c.06,14.08-9.85,25.54-9.85,25.54s-10-11.37-10.07-25.45,9.84-25.54,9.84-25.54S2880.92,231.21,2881,245.29Z"/><rect class="cls-7" x="3160.64" y="234.31" width="1.18" height="46.75"/><path class="cls-2" d="M3380.22,235.92c.06,14.45-8.22,26.71-11.27,30.73a1.41,1.41,0,0,1-2.24,0c-3.09-4-11.48-16.18-11.55-30.63s8.22-26.72,11.27-30.74a1.41,1.41,0,0,1,2.24,0C3371.75,209.29,3380.15,221.47,3380.22,235.92Z"/><path class="cls-3" d="M3380.37,235.73c.06,14.55-8.28,26.89-11.35,30.93a1.4,1.4,0,0,1-2.23,0c-3.11-4-11.56-16.28-11.63-30.82s8.28-26.89,11.34-30.93a1.41,1.41,0,0,1,2.24,0C3371.84,208.92,3380.3,221.18,3380.37,235.73Z"/><rect class="cls-7" x="3367.17" y="233.72" width="1.18" height="46.75"/><rect class="cls-7" x="3141.99" y="243.67" width="0.94" height="37.11"/><path class="cls-2" d="M3151.6,248.4c.06,13-9.07,23.54-9.07,23.54s-9.23-10.48-9.29-23.46,9.07-23.54,9.07-23.54S3151.54,235.42,3151.6,248.4Z"/><rect class="cls-7" x="2806.79" y="249.31" width="0.8" height="31.51"/><path class="cls-2" d="M2815,253.32c.05,11-7.7,20-7.7,20s-7.84-8.9-7.89-19.92,7.7-20,7.7-20S2814.9,242.3,2815,253.32Z"/><rect class="cls-7" x="3225.89" y="235.75" width="1.11" height="43.89"/><path class="cls-9" d="M3237.26,241.34c.07,15.35-10.73,27.84-10.73,27.84s-10.91-12.39-11-27.74,10.73-27.84,10.73-27.84S3237.19,226,3237.26,241.34Z"/><path class="cls-7" d="M3081.43,280.58c-2.54-.43-5-.79-7.31-1.1l.92-1.8c-.31-.1-1.68.92-1.68.92l1.21-5.2c-1.56.19-2.36,5.5-2.36,5.5l-1.75-1.79.85,2a159.83,159.83,0,0,0-18.55-1.17l.79-1.54c-.31-.1-1.68.92-1.68.92l1.22-5.2c-1.57.19-2.37,5.5-2.37,5.5l-1.75-1.8.9,2.14a102.6,102.6,0,0,0-10.66.73c.8-2.39,3.52-4.67,3.52-4.67a6.12,6.12,0,0,0-3.74,2.62,42,42,0,0,1,2.42-14.48s-4.29,9.34-3.74,15.61l.06,1.11a43.89,43.89,0,0,0-5.46,1.07Z"/><path class="cls-7" d="M3024.64,280.25c-2.54-.43-5-.8-7.31-1.11l.92-1.79c-.31-.11-1.68.92-1.68.92l1.22-5.21c-1.57.19-2.37,5.51-2.37,5.51l-1.75-1.8.85,2a164.38,164.38,0,0,0-18.55-1.17l.79-1.53c-.31-.11-1.68.92-1.68.92l1.22-5.21c-1.57.19-2.37,5.51-2.37,5.51l-1.75-1.8.9,2.14a105.41,105.41,0,0,0-10.66.72c.8-2.39,3.52-4.66,3.52-4.66a6.08,6.08,0,0,0-3.74,2.62,41.81,41.81,0,0,1,2.43-14.49s-4.3,9.35-3.75,15.62l.07,1.11a43,43,0,0,0-5.47,1.06Z"/><path class="cls-2" d="M3012.29,262.07c.08,11.74-6.87,15.89-15.48,15.95h-.59l-1.19,0c-7.77-.5-13.84-4.76-13.92-15.68-.08-11.3,14.27-25.66,15.34-26.72h0l.06-.06S3012.21,250.33,3012.29,262.07Z"/><path class="cls-7" d="M2996.23,276.23l5.65-8-5.65,8.88V278l-1.19,0,.53-11.75v-.11l0-1.11-5.79-8.82,5.8,8,0,.24.4-8.88-5-9.12,5,7.56.35-18.4v0l0,14.51,4.85-5.79-4.86,7-.07,7.94,4.51-7.65-4.52,8.82,0,4.42,6.54-10.66-6.56,12.2Z"/><path class="cls-2" d="M1454,261c.1,14.17-8.29,19.17-18.68,19.25h-.72c-.48,0-1,0-1.43,0-9.38-.6-16.7-5.75-16.79-18.92-.1-13.63,17.21-31,18.5-32.24h0l.07-.08S1453.93,246.88,1454,261Z"/><path class="cls-7" d="M1434.65,278.12l6.81-9.66-6.82,10.72v1.1c-.48,0-1,0-1.43,0l.64-14.18v-.13l.06-1.34-7-10.64,7,9.64,0,.28.49-10.71-6-11,6.06,9.13.42-22.2v0l0,17.5,5.84-7-5.85,8.49-.09,9.59,5.44-9.24-5.45,10.65,0,5.33,7.89-12.86-7.91,14.72Z"/><path class="cls-2" d="M378.87,260.27c.09,14.17-8.29,19.17-18.68,19.25h-.72c-.48,0-1,0-1.43-.05-9.38-.6-16.7-5.75-16.79-18.92-.1-13.63,17.21-31,18.5-32.24h0l.07-.08S378.77,246.11,378.87,260.27Z"/><path class="cls-7" d="M359.49,277.36l6.81-9.66-6.82,10.71v1.1c-.48,0-1,0-1.43-.05l.64-14.18v-.13l.06-1.34-7-10.64,7,9.64,0,.28.49-10.71-6-11,6.06,9.13.42-22.2v0l0,17.5,5.84-7-5.85,8.49-.09,9.59,5.44-9.24-5.45,10.65-.05,5.33,7.89-12.86L359.6,265.5Z"/><path class="cls-2" d="M2915.52,268.64c.06,8.57-5,11.6-11.3,11.65h-.43l-.87,0c-5.68-.36-10.11-3.47-10.16-11.45-.06-8.25,10.41-18.74,11.2-19.51h0l0,0S2915.46,260.07,2915.52,268.64Z"/><path class="cls-2" d="M2408.57,272.55c0,5.61-3.27,7.59-7.38,7.62h-.29l-.56,0c-3.71-.23-6.61-2.27-6.64-7.48,0-5.39,6.8-12.25,7.32-12.75h0l0,0S2408.54,267,2408.57,272.55Z"/><path class="cls-7" d="M2903.8,279l4.12-5.85-4.13,6.49v.67l-.87,0,.39-8.58v-.08l0-.81-4.23-6.44,4.24,5.84v.17l.29-6.49L2900,257.2l3.67,5.53.26-13.44v10.59l3.54-4.22L2904,260.8l-.06,5.8,3.29-5.59-3.3,6.44,0,3.23,4.78-7.79-4.79,8.91Z"/><path class="cls-2" d="M2705.25,265.14c.09,11.89-7,16.1-15.68,16.16H2689c-.4,0-.8,0-1.2,0-7.87-.5-14-4.83-14.1-15.89-.08-11.45,14.45-26,15.54-27.08h0l.07-.06S2705.17,253.24,2705.25,265.14Z"/><path class="cls-7" d="M2689.11,278l4.13-5.84-4.13,6.48v.67c-.29,0-.58,0-.86,0l.38-8.58v-.07h0l0-.81-4.23-6.45,4.23,5.84,0,.17.29-6.48-3.63-6.66,3.66,5.52.26-13.44v0l0,10.6,3.54-4.23-3.55,5.14-.05,5.8,3.29-5.59-3.3,6.44,0,3.23,4.78-7.78-4.79,8.91Z"/><rect class="cls-7" x="1214.92" y="206.85" width="1.96" height="77.59"/><rect class="cls-7" x="1163.83" y="217.7" width="1.59" height="62.73"/><path class="cls-9" d="M1180.08,225.7c.1,21.93-15.33,39.79-15.33,39.79s-15.6-17.71-15.7-39.65,15.33-39.79,15.33-39.79S1180,203.76,1180.08,225.7Z"/><path class="cls-6" d="M1210.61,260.17c.12,17-10,23-22.43,23.11q-.43,0-.87,0c-.58,0-1.15,0-1.72-.07-11.26-.71-20.06-6.9-20.17-22.72-.11-16.38,20.67-37.2,22.23-38.74h0l.09-.09S1210.49,243.15,1210.61,260.17Z"/><path class="cls-7" d="M1187.34,280.69l8.18-11.61-8.2,12.87v1.33c-.58,0-1.15,0-1.72-.07l.77-17V266l.07-1.61-8.39-12.79,8.41,11.58,0,.34.59-12.86-7.21-13.23,7.28,11,.51-26.68v0l0,21,7-8.38-7,10.19-.11,11.52,6.53-11.1-6.54,12.8-.06,6.4,9.48-15.45-9.5,17.69Z"/><path class="cls-2" d="M121.72,219.76C121.88,245.22,96.51,266,96.51,266s-25.64-20.56-25.81-46,25.21-46.19,25.21-46.19S121.55,194.29,121.72,219.76Z"/><path class="cls-3" d="M121.68,218.22c.16,25.42-25.17,46.11-25.17,46.11s-25.6-20.52-25.77-45.95,25.17-46.11,25.17-46.11S121.51,192.8,121.68,218.22Z"/><rect class="cls-7" x="96.21" y="218.3" width="1.96" height="63.46"/><path class="cls-6" d="M89.26,258.83c.12,17.81-10.42,24.1-23.47,24.19h-.91c-.6,0-1.2,0-1.79-.07-11.79-.75-21-7.22-21.11-23.77-.12-17.14,21.63-38.91,23.26-40.52h0l.1-.1S89.13,241,89.26,258.83Z"/><path class="cls-7" d="M64.91,280.3l8.56-12.14L64.9,281.63l0,1.38c-.6,0-1.2,0-1.79-.07l.8-17.81V265l0,0,.08-1.68L55.19,249.9,64,262l0,.36.61-13.46-7.54-13.84,7.61,11.47.54-27.9v0l0,22,7.35-8.78-7.36,10.67-.12,12.05L72,243l-6.85,13.38-.06,6.7L75,246.9l-9.94,18.5Z"/><path class="cls-9" d="M3699.15,268.64c.06,8.57-5,11.6-11.31,11.65h-.43l-.87,0c-5.67-.36-10.1-3.48-10.16-11.45-.06-8.25,10.41-18.74,11.2-19.51h0l.05,0S3699.09,260.07,3699.15,268.64Z"/><path class="cls-7" d="M3687.42,279l4.12-5.85-4.12,6.49v.67l-.87,0,.39-8.58v-.08l0-.81-4.23-6.44,4.24,5.83v.18l.3-6.49-3.63-6.66,3.66,5.52.26-13.43v0l0,10.59,3.53-4.22-3.54,5.13-.06,5.81,3.3-5.59-3.3,6.44,0,3.23,4.78-7.79-4.79,8.91Z"/><path class="cls-2" d="M3680,270.73c0,6.84-4,9.26-9,9.3h-.35l-.69,0c-4.53-.29-8.07-2.78-8.11-9.14,0-6.59,8.31-15,8.93-15.58h0l0,0S3680,263.89,3680,270.73Z"/><path class="cls-7" d="M3670.64,279l3.29-4.67-3.3,5.18V280l-.69,0,.31-6.85v0h0l0-.65-3.38-5.14,3.39,4.65v.14l.23-5.17-2.9-5.32,2.93,4.41.2-10.73v8.46l2.82-3.37-2.83,4.1,0,4.63,2.63-4.46-2.64,5.14,0,2.58,3.81-6.22-3.82,7.11Z"/><path class="cls-2" d="M4219.46,270.73c.05,6.84-4,9.26-9,9.3h-.34l-.69,0c-4.53-.29-8.07-2.78-8.12-9.14,0-6.59,8.32-15,8.94-15.58h0l0,0S4219.42,263.89,4219.46,270.73Z"/><path class="cls-10" d="M4205.81,272.24c0,5.59-3.27,7.57-7.38,7.59h-.28l-.56,0c-3.71-.24-6.6-2.27-6.64-7.47,0-5.38,6.8-12.23,7.31-12.73h0l0,0S4205.77,266.64,4205.81,272.24Z"/><path class="cls-7" d="M4210.11,279.45l3.28-2.55-3.29,2.83V280h-.69l.3-3.75v0h0l0-.36-3.38-2.81,3.38,2.55v.07l.24-2.83-2.9-2.91,2.93,2.41.2-5.86v0l0,4.62,2.82-1.84-2.83,2.24,0,2.54,2.62-2.45-2.63,2.82,0,1.41,3.81-3.4-3.82,3.89Z"/><path class="cls-2" d="M3444.19,270.49c0,6.84-4,9.26-9,9.3h-.35l-.69,0c-4.53-.29-8.07-2.78-8.11-9.14-.05-6.59,8.31-15,8.94-15.58h0l0,0S3444.14,263.65,3444.19,270.49Z"/><path class="cls-7" d="M3434.83,278.74l3.29-4.66-3.29,5.17v.53l-.69,0,.31-6.85v-.05h0l0-.65-3.37-5.14,3.38,4.65v.14l.23-5.17-2.89-5.32,2.92,4.41L3435,255v8.46l2.82-3.37-2.82,4.1,0,4.63,2.63-4.46-2.63,5.14,0,2.58,3.82-6.22-3.83,7.11Z"/><path class="cls-2" d="M3223.37,259.07c.07,9.53-5.57,12.9-12.56,12.95h-.48l-1,0c-6.31-.4-11.24-3.87-11.3-12.73-.07-9.17,11.57-20.82,12.45-21.69h0l.05-.05S3223.31,249.55,3223.37,259.07Z"/><path class="cls-7" d="M3210.32,279l5.75-8.16-5.76,9v.94c-.41,0-.81,0-1.21,0l.54-12v-.1h0l.05-1.14-5.9-9,5.91,8.15,0,.24.41-9.05-5.07-9.3,5.12,7.71.36-18.75v0l0,14.78,4.94-5.89-4.95,7.17-.08,8.1,4.6-7.81-4.61,9,0,4.5,6.67-10.87L3210.41,269Z"/><path class="cls-7" d="M3082.52,280.22h22.09l-7.34-11.86-5.17-.43,3-3-18.46-29.83v-4.88h-2.48l-15.06-36.05,2.6-3.58-2.6-1.94h-1.44l-8.43-76.5h1.26l1.95-5.52V95.88h-2.6v-5.2h-3.25V80.61H3046V70.87h-.65v9.74h-1V90.68h-2.92v5.2h-2.93V106.6l2.28,5.52h1.31l-6.32,76.5h0l-4.22,1.29,2.27,3.9.17.33h-.17l-12.64,36.05h-3.27l.32,4.88-27.28,45.15h22.41V275H3012s4.22-28.59,34.76-31.18c31.18-.65,37,30.53,37,30.53h-1.3Zm15.21-10.56.87,3-3.9-2.6Zm-4.76.87,4.76,3-5.2-.43Zm-5.63,3,3-3.47,1.3,3.47Zm-5.08-19.17,1.12,2.6-4.83-2.6Zm-1.44-1.67.37-2.22,4.09,2.59Zm6.95,11.74,1.3,3-5.63-3Zm-5.88-2.27,2.6-3,1.11,3Zm4.46-.37.37-2.23,4.08,2.6Zm4.45,6.11-1.73-3.47h4.76Zm.74-6.48-3.34-2.23,2.6-.37Zm-1.11-3.72-4.46-.37,2.6-2.6Zm-5.57-.37-1.48-3h4.08Zm1.16-5-3.34-2.23,2.6-.37Zm-1.11-3.71-4.46-.37,2.6-2.6Zm-5.57-.37-1.49-3h4.09Zm-5-5,.37-2.22,4.08,2.59Zm3.52,4.6-4.82-2.6h3.71Zm1.67-5-3.34-2.23,2.6-.37Zm-1.11-3.71-4.45-.37,2.59-2.6Zm-3-3.34-2.6,3-1.48-3Zm-4.08,2.6-4.83-2.6h3.71Zm-36.48-8.29,6.71-29.88H3052l8.89,29.88Zm22.83,8.61-4.82-2.6h3.71Zm-8.53-.65-1.3,1.49-.75-1.49Zm-2,1.3-2.41-1.3h1.86ZM3031,220.94l4.87-2.93-1.29,5.52Zm2.6,3.24h-7.8l4.23-2.59Zm12-103.64-1.38,1.37-1.37-1.37Zm-2.75-.6,1.37-1.37,1.38,1.37Zm2.75,3.9h-2.75l1.37-1.38Zm-1.1-1.65,1.37-1.38v2.75Zm1.32,2.92v3.25l-1.62-1.62Zm-1.32-6.82,1.37-1.37v2.74Zm.35-3.57,1.08-1.09v2.17Zm.86,1.3h-2.16l1.08-1.09Zm-1.08-1.52-1.08-1.08h2.16Zm-.22.22-1.08,1.08v-2.17Zm1.19,1.92-1.38,1.38-1.37-1.38Zm-1.65,1.65-1.38,1.37v-2.74Zm0,3.9-1.38,1.37v-2.75Zm1.55,2.6-1.63,1.62-1.62-1.62Zm0,3.89h-3.25l1.62-1.62Zm.32,1.3v3.25l-1.62-1.62Zm-.32-.32-1.63,1.62-1.62-1.62Zm0,3.9h-3.25l1.62-1.63Zm.25,1.57v4l-2-2Zm-.4,4.4h-4l2-2Zm.4,1.45v4l-2-2Zm-.4-.4-2,2-2-2Zm0,4.8h-4l2-2Zm.31,1.66v4.87l-2.44-2.44Zm-.49,5.36h-4.87l2.44-2.44Zm.49,1.78v4.88l-2.44-2.44Zm-.49-.48-2.43,2.43-2.44-2.43Zm0,5.84h-4.87l2.44-2.43Zm.4,2v5.75l-2.87-2.87Zm-.57,6.32h-5.75l2.87-2.87Zm.5,3v6.5l-3.25-3.25Zm-.65,7.15h-6.5l3.25-3.25Zm.6,2.67v7l-3.5-3.5Zm-.7-.7-3.5,3.5-3.5-3.5Zm0,8.4h-7l3.5-3.5Zm-7.86,20.49h-6.5l3.9-2.28Zm-2-2.93,4.22-2.59-1,5.84Zm2.6,4.55-1,5.52-2.59-2.92Zm-1.63-.65-3.24,2.6-2.28-2.6Zm-.32,6.5h-6.82l3.57-2.6Zm2.23,19.49-1.49,3-2.6-3Zm1.11,0h3.71l-4.82,2.6Zm24.45-15.69L3060,223l-1.67-5.42Zm-5.84-4.48-1.35-5.45,3.74,2.35Zm4.06-2.56,3.74,2.35-6.81.46Zm-.41-1.27-3.42-2.38,5.51-.37Zm-4.46-3.28,2.44-2.45,4,2Zm-1.27.41-1.37-5.77,4.39,2.31Zm-7.91-20.58,3.49-3.5,3.5,3.5Zm-.7-.7v-7l3.49,3.5Zm.7-7.7h7l-3.5,3.5Zm-.1-2,3.24-3.25,3.25,3.25Zm-.65-.65v-6.5l3.24,3.25Zm-.08-10.12v-5.75l2.87,2.88Zm3.45-2.3,2.87,2.87h-5.74Zm-2.37-42.8-1.38,1.37v-2.75Zm-1.1-1.65h2.74l-1.37,1.37Zm-.23,9.44,1.63,1.63-1.63,1.62Zm.33-.32H3050l-1.62,1.62Zm-.25,11.32,2,2-2,2Zm.4-.4h4l-2,2Zm-.32,13.6,2.44,2.44-2.44,2.44Zm.49-.48H3052l-2.43,2.43Zm2.44,3.41,2.43,2.43h-4.87Zm.48-.49,2.44-2.44v4.88Zm-2.92-4.22,2.44-2.44,2.43,2.44Zm-.49-.49V147l2.44,2.43Zm2.31-8.53,2,2h-4Zm.4-.4,2-2v4Zm-2.39-3.45,2-2,2,2Zm-.4-.4v-4l2,2Zm1.87-7.2,1.62,1.63h-3.24Zm.33-.32,1.62-1.63v3.25Zm-1.95-2.93,1.62-1.62,1.62,1.62Zm-.33-.32v-3.25l1.63,1.63Zm1.6-5.9,1.37,1.38h-2.74Zm.28-.27,1.37-1.38v2.75Zm-1.65-2.25,1.37-1.37,1.37,1.37Zm-.28-.28v-2.74l1.38,1.37Zm1.46-4.94,1.08-1.09v2.17Zm.87,1.3h-2.17l1.08-1.09Zm-1.09-1.52-1.08-1.08h2.17Zm-.21.22-1.09,1.08v-2.17ZM3061.8,236.2l-2.6,3-1.49-3Zm-.8-12.59,3.39-2.84,4.39,2.31Zm8.36-1.55-4.41-2.63,2.46-2.12Zm-5.43-3.21-4-2,6.48-.44Zm2-4.37-3.72-2,2.09-2.75Zm-2.45-7.32-3.72-2,2.11-2.43Zm-2-5.07-2.42,2.77-4.39-2.31Zm-6.26-14.36-3.5-3.5,3.5-3.5Zm-.65-10.32-3.25-3.25,3.25-3.25Zm-3.9-3.9-3.24-3.25h6.49Zm2.93-6.22-2.88-2.87,2.88-2.88Zm-3.45-3.45-2.87-2.87H3053Zm2.31-11.93-2.44-2.44,2.44-2.43Zm-2.92-2.92-2.44-2.44H3052Zm1.78-9.86-2-2,2-2Zm-2.4-2.4-2-2h4Zm1.43-8.37-1.62-1.62,1.62-1.63Zm-2-2-1.62-1.62H3050Zm1.3-6.75-1.37-1.37,1.37-1.37Zm-1.65-1.64-1.37-1.38h2.74Zm-6.15,7.09,1.63,1.63-1.63,1.62Zm0,4.87,1.63,1.63-1.63,1.62Zm3.43,4.75-2,2-2-2Zm-4.4.4,2,2-2,2Zm0,5.85,2,2-2,2Zm4.22,5.57-2.43,2.44-2.44-2.44Zm-5.36.49,2.44,2.43-2.44,2.44Zm0,7.14,2.44,2.44-2.44,2.44ZM3045,161l-2.88,2.87-2.87-2.87Zm-6.32.57,2.87,2.88-2.87,2.87Zm6.17,8.72-3.25,3.25-3.25-3.25Zm-7.15.65,3.25,3.25-3.25,3.25Zm-.65,9.82,3.5,3.5-3.5,3.5Zm1.46,22-4.22,2.59-2.6-2.59Zm-7.14.65,2.27,2.27-3.57,2.27Zm-2,7.14,2.27,2.6-3.57,2.27Zm4.87,6.82-3.9,2.28-2.6-2.28Zm-7.47,1,2.6,1.95-4.22,2.92Zm1.86,17.54-4.83,2.6,1.11-2.6Zm-4.83,0-1.49,3-2.59-3Zm-5.2.37,2.6,2.6-4.45.37Zm4.18,9.05-4.83,2.6,1.12-2.6Zm-6.41-1.63,4.09-2.59.37,2.22Zm0-3.34,2.6.37-3.34,2.23Zm1.58,5-1.48,3-2.6-3Zm-5.19.37,2.59,2.6-4.45.37Zm-.39,18.79-5.63,3,1.3-3Zm-7.36-2.27,4.08-2.6.37,2.23Zm5.19,0,1.12-3,2.6,3Zm7.06-7.8-4.83,2.6,1.11-2.6Zm-6.73-1.3,4.08-2.59.37,2.22Zm0-3.34,2.6.37-3.34,2.23Zm1.9,4.64-1.48,3-2.6-3Zm-5.2.37,2.6,2.6-4.45.37Zm-2.22,4.09,2.59.37-3.34,2.23Zm1.73,5.61-1.73,3.47-3-3.47Zm-8.66,5.2,3,.43-3.9,2.6Zm0,3.9,4.76-3,.43,2.6Zm.43-5.2,2.16-3.46,3,3Zm5.63,5.2,1.3-3.47,3,3.47Zm6.06-.43-3-3.47,5.2-.43Zm2.6-5.2h-4.76l6.06-3Zm2.6-6.11-2.6-3,4.46-.37Zm2.23-4.46h-4.09l5.2-2.6Zm-1.9-4.27,1.11-3,2.6,3Zm5.19-.37-2.6-3,4.46-.37Zm2.23-4.45h-4.08l5.19-2.6Zm-1.58-4.6,1.12-3,2.59,3Zm5.2-.37-2.6-3,4.46-.37Zm-1.86-4.45,5.2-2.6-1.11,2.6Zm5.43,1.48,2.6.37-3.34,2.23Zm0,3.34,4.09-2.59.37,2.22Zm.37-4.45,1.86-3,2.6,2.6Zm4.83,4.45,1.11-3,2.6,3Zm5.2-.37-2.6-3,4.45-.37Zm-1.86-4.45,5.2-2.6-1.12,2.6Zm5.06-.51,2.6,1.3h-2Zm.74,1.85,2.23.19-1.3,1.48Zm1.67,1.86,1.3-1.49.56,1.49Zm3.34-3.71.93,1.48-2.23-.18Zm-1.11,3.52.18-1.11,2,1.3Zm.93-1.3,1.3-.18.37,1.3Zm1.85-4,5.2,2.6h-4.08Zm1.49,3.72,4.45.37-2.6,3Zm3.34,3.71,2.6-3,1.11,3Zm6.68-7.43,1.86,3-4.46-.37Zm-2.23,7.06.38-2.23,4.08,2.6Zm1.86-2.6,2.6-.37.74,2.6Zm2.51-4.78,5.19,2.6h-4.08Zm1.48,3.71,4.46.37-2.6,3Zm5.94.74,1.11,3h-3.71Zm.19,7.57-1.12-2.6,5.2,2.6Zm.37,1.11,4.45.37-2.6,3Zm5.94.74,1.11,3h-3.71Zm-1.91,4.64,5.2,2.6h-4.08Zm1.49,3.72,4.45.37-2.59,3Zm3.16,6.42,6.06,3H3083Zm1.73,4.33,5.19.43-3,3.47Z"/><path class="cls-7" d="M3078.65,276.17a8.26,8.26,0,0,0-3.21,4.1,7.16,7.16,0,0,0,8.36-4.93A8.34,8.34,0,0,0,3078.65,276.17Z"/><path class="cls-2" d="M3079.46,277a8.3,8.3,0,0,1-4,3.34,7.17,7.17,0,0,1,4.68-8.51A8.27,8.27,0,0,1,3079.46,277Z"/><path class="cls-7" d="M3465.67,199.48l11-4s-3.64-1.83-7-.44c-.72-1.85-2.48-4.18-6.76-3.71l5.51,4.41A8.43,8.43,0,0,0,3465.67,199.48Z"/><path class="cls-7" d="M3418.82,201.29l11-4s-3.64-1.82-7-.43c-.72-1.85-2.48-4.18-6.77-3.71l5.52,4.41A8.32,8.32,0,0,0,3418.82,201.29Z"/><polygon class="cls-6" points="691.07 279.23 434.54 279.23 526.75 147.39 562.8 95.84 590.25 135.08 691.07 279.23"/><polygon class="cls-6" points="699.37 144.6 605.21 279.23 793.53 279.23 699.37 144.6 605.21 279.23 793.53 279.23 699.37 144.6"/><path class="cls-5" d="M562.8,95.84l2.12,37-7,53.25S615.84,216.6,616,218s-12.2,40.5-12.2,40.5l87.27,20.74Z"/><path class="cls-5" d="M699.37,144.6l15.35,36.12,27.22,54.64,16.11,8.24s-1,12.8-1,14.44,36.46,21.19,36.46,21.19Z"/><circle class="cls-8" cx="529.53" cy="218.55" r="21.54"/><path class="cls-11" d="M513.63,204.17A21.54,21.54,0,0,0,549.52,227a21.54,21.54,0,1,1-35.89-22.79Z"/><polygon class="cls-7" points="529.59 218.55 529.65 218.55 530.72 279.62 528.47 279.62 529.59 218.55"/><circle class="cls-2" cx="555.2" cy="229.13" r="18.51"/><path class="cls-11" d="M541.54,216.76a18.51,18.51,0,0,0,30.84,19.59,18.51,18.51,0,1,1-34-14.55,18.26,18.26,0,0,1,3.2-5Z"/><polygon class="cls-7" points="555.26 229.13 555.31 229.13 556.22 281.61 554.29 281.61 555.26 229.13"/><circle class="cls-2" cx="588.52" cy="198.5" r="25.94"/><path class="cls-11" d="M607.68,181.18a25.94,25.94,0,0,1-43.23,27.45,25.94,25.94,0,1,0,43.23-27.45Z"/><polygon class="cls-7" points="588.45 198.5 588.37 198.5 586.94 280.74 589.97 280.74 588.45 198.5"/><path class="cls-7" d="M628.09,154.21l3.52-2.82a3.74,3.74,0,0,0-4.32,2.37,6,6,0,0,0-4.46.28l7,2.56A5.38,5.38,0,0,0,628.09,154.21Z"/><path class="cls-7" d="M632.66,132.25l3.52-2.82a3.74,3.74,0,0,0-4.32,2.38,6,6,0,0,0-4.47.27l7.05,2.56A5.28,5.28,0,0,0,632.66,132.25Z"/><path class="cls-7" d="M658,155.37l3.52-2.82a3.74,3.74,0,0,0-4.32,2.37,6,6,0,0,0-4.46.28l7,2.55A5.25,5.25,0,0,0,658,155.37Z"/><path class="cls-6" d="M1491.47,240.78c0,17.79-10.58,24-23.63,24s-23.63-6.21-23.63-24,23.63-40.44,23.63-40.44S1491.47,223,1491.47,240.78Z"/><polygon class="cls-7" points="1466.98 262.06 1467.22 247.17 1477.29 228.75 1467.26 244.83 1467.37 238.14 1474.31 224.81 1467.4 236.37 1467.4 236.37 1467.59 224.32 1475.03 213.71 1467.62 222.43 1467.75 200.34 1466.98 229.58 1467.04 228.37 1459.48 216.81 1466.92 230.69 1466.22 244.14 1466.19 243.78 1457.48 231.61 1466.17 245.04 1466.08 246.72 1466.06 246.75 1466.07 246.89 1464.29 281.01 1466.67 281.01 1466.96 263.39 1475.62 249.99 1466.98 262.06"/><path class="cls-2" d="M993.24,240.23c0,17.79-10.58,24-23.63,24S946,258,946,240.23s23.63-40.44,23.63-40.44S993.24,222.43,993.24,240.23Z"/><polygon class="cls-7" points="968.75 261.51 968.99 246.62 979.06 228.19 969.03 244.28 969.14 237.59 976.08 224.26 969.17 235.81 969.17 235.81 969.36 223.77 976.79 213.16 969.39 221.88 969.52 199.79 968.75 229.03 968.81 227.82 961.25 216.26 968.69 230.14 967.99 243.59 967.97 243.23 959.25 231.06 967.94 244.49 967.85 246.17 967.83 246.2 967.84 246.34 966.05 280.46 968.44 280.46 968.73 262.84 977.39 249.44 968.75 261.51"/><path class="cls-6" d="M2804.31,247.22c0,14.39-8.55,19.42-19.11,19.42s-19.11-5-19.11-19.42,19.11-32.7,19.11-32.7S2804.31,232.83,2804.31,247.22Z"/><polygon class="cls-7" points="2784.51 264.44 2784.7 252.39 2792.69 237.49 2784.73 250.5 2784.82 245.09 2790.32 234.3 2784.84 243.65 2784.84 243.65 2785 233.91 2790.89 225.33 2785.02 232.38 2785.12 214.51 2784.51 238.16 2784.56 237.19 2778.57 227.83 2784.46 239.06 2783.91 249.94 2783.89 249.65 2776.98 239.81 2783.87 250.67 2783.8 252.03 2783.78 252.05 2783.79 252.16 2782.37 279.77 2784.27 279.77 2784.49 265.51 2791.36 254.67 2784.51 264.44"/><rect class="cls-7" x="3975.56" y="234.15" width="1.18" height="46.75"/><rect class="cls-7" x="3958.52" y="234.34" width="1.18" height="46.75"/><path class="cls-2" d="M3987.66,240.1c.08,16.35-11.42,29.66-11.42,29.66s-11.63-13.2-11.7-29.55S3976,210.56,3976,210.56,3987.59,223.76,3987.66,240.1Z"/><path class="cls-3" d="M3987.66,240.1c.08,16.35-11.42,29.66-11.42,29.66s-11.63-13.2-11.7-29.55S3976,210.56,3976,210.56,3987.59,223.76,3987.66,240.1Z"/><path class="cls-9" d="M3969.07,245.75c.07,14.09-9.84,25.55-9.84,25.55s-10-11.37-10.08-25.45S3959,220.3,3959,220.3,3969,231.67,3969.07,245.75Z"/><path class="cls-2" d="M3862.58,247.83c0,14.4-8.56,19.42-19.11,19.42s-19.11-5-19.11-19.42,19.11-32.7,19.11-32.7S3862.58,233.44,3862.58,247.83Z"/><polygon class="cls-7" points="3842.78 265.05 3842.97 253 3850.96 238.1 3843 251.11 3843.09 245.7 3848.59 234.91 3843.11 244.26 3843.11 244.26 3843.26 234.52 3849.16 225.94 3843.29 232.99 3843.39 215.13 3842.78 238.78 3842.82 237.8 3836.83 228.44 3842.73 239.67 3842.17 250.55 3842.15 250.26 3835.24 240.42 3842.13 251.28 3842.06 252.64 3842.05 252.66 3842.06 252.78 3840.64 280.38 3842.53 280.38 3842.76 266.12 3849.63 255.28 3842.78 265.05"/><path class="cls-5" d="M3862.39,234.38s13.66,13.1,13.66,23.39-6.11,13.89-13.66,13.89-13.67-3.6-13.67-13.89S3862.39,234.38,3862.39,234.38Z"/><polygon class="cls-7" points="3857.98 263.1 3862.89 270.85 3863.05 281.04 3864.41 281.04 3863.4 261.31 3863.4 261.23 3863.39 261.21 3863.34 260.24 3868.27 252.47 3863.33 259.51 3863.31 259.71 3862.91 251.94 3867.13 243.91 3862.85 250.6 3862.88 251.29 3862.45 234.38 3862.52 247.16 3858.32 242.11 3862.53 248.25 3862.64 255.22 3862.64 255.22 3858.72 248.53 3862.66 256.24 3862.72 260.12 3857.03 250.81 3862.74 261.47 3862.88 270.08 3857.98 263.1"/><path class="cls-6" d="M3410.86,247.7c0,14.39-8.56,19.42-19.12,19.42s-19.11-5-19.11-19.42c0-12.4,14.18-27.71,18.11-31.71a1.4,1.4,0,0,1,2,0C3396.68,220,3410.86,235.3,3410.86,247.7Z"/><path class="cls-7" d="M3391.12,260.39l.12-7.17a1.38,1.38,0,0,1,.17-.66l8-14.59-5.42,8.7a1.41,1.41,0,0,1-2.61-.77h0a1.37,1.37,0,0,1,.16-.63l5.46-10.49-5.59,9.35h0l.15-9.31a1.4,1.4,0,0,1,.25-.79l5.77-8.23-3.48,4.1a1.41,1.41,0,0,1-2.49-.92l.08-14-.62,23.65,0-1-6.11-9.35,5.82,10.88a1.37,1.37,0,0,1,.17.74l-.55,10.49,0-.29-7-9.85,6.77,10.48a1.41,1.41,0,0,1,.23.84l0,.91v.13l-1.44,27.6h1.93l.22-13.85a1.5,1.5,0,0,1,.23-.74l6.79-10.5-4.36,6.09A1.41,1.41,0,0,1,3391.12,260.39Z"/><polygon class="cls-7" points="3250.69 248.96 3259.36 262.36 3259.64 279.99 3262.03 279.99 3260.24 245.86 3260.25 245.72 3260.24 245.7 3260.15 244.02 3268.83 230.58 3260.12 242.76 3260.1 243.11 3259.39 229.66 3266.83 215.78 3259.27 227.35 3259.34 228.55 3258.57 199.32 3258.69 221.4 3251.29 212.69 3258.72 223.3 3258.92 235.34 3258.92 235.34 3252.01 223.78 3258.95 237.11 3259.05 243.81 3249.02 227.72 3259.09 246.14 3259.34 261.04 3250.69 248.96"/><path class="cls-6" d="M1650.84,242.67c0,16.25-9.67,21.93-21.59,21.93s-21.58-5.68-21.58-21.93,21.58-36.94,21.58-36.94S1650.84,226.41,1650.84,242.67Z"/><polygon class="cls-7" points="1628.47 263.11 1628.69 249.51 1637.89 232.68 1628.72 247.37 1628.82 241.26 1635.16 229.08 1628.85 239.64 1628.85 239.64 1629.03 228.64 1635.82 218.94 1629.05 226.91 1629.17 206.73 1628.46 233.44 1628.52 232.34 1621.62 221.77 1628.41 234.45 1627.77 246.74 1627.75 246.41 1619.79 235.29 1627.72 247.56 1627.64 249.1 1627.63 249.12 1627.64 249.25 1626.01 280.42 1628.18 280.42 1628.45 264.32 1636.36 252.08 1628.47 263.11"/><path class="cls-6" d="M1560,216.58c0,21.74-11.41,44.19-27.35,44.19s-28.86-7.59-28.86-29.33,28.86-49.39,28.86-49.39S1560,194.84,1560,216.58Z"/><polygon class="cls-7" points="1522.01 242.69 1532.59 259.06 1532.94 280.6 1535.86 280.6 1533.68 238.91 1533.68 238.74 1533.66 238.71 1533.56 236.65 1544.17 220.24 1533.53 235.11 1533.5 235.55 1532.64 219.12 1541.72 202.16 1532.49 216.29 1532.57 217.76 1531.63 182.05 1531.78 209.03 1522.74 198.37 1531.82 211.34 1532.06 226.05 1532.06 226.05 1523.61 211.93 1532.09 228.22 1532.22 236.4 1519.97 216.74 1532.27 239.25 1532.57 257.44 1522.01 242.69"/><path class="cls-9" d="M335.76,215.13c0,21.74-11.41,44.19-27.35,44.19s-28.86-7.59-28.86-29.33,28.86-49.39,28.86-49.39S335.76,193.39,335.76,215.13Z"/><polygon class="cls-7" points="297.8 242.66 308.38 259.03 308.73 280.56 311.65 280.56 309.47 238.88 309.48 238.71 309.46 238.68 309.35 236.62 319.96 220.21 309.32 235.08 309.29 235.52 308.43 219.08 317.51 202.13 308.28 216.25 308.36 217.73 307.42 182.01 307.57 208.99 298.53 198.34 307.61 211.31 307.85 226.02 307.85 226.02 299.4 211.9 307.88 228.18 308.02 236.37 295.76 216.71 308.06 239.22 308.36 257.41 297.8 242.66"/><rect class="cls-12" x="1499.2" y="231.99" width="5.18" height="48.66"/><polygon class="cls-7" points="1525.54 243.08 1493.73 243.08 1493.73 234.15 1525.54 234.15 1534.76 238.62 1525.54 243.08"/><polygon class="cls-3" points="1525.54 242.36 1493.73 242.36 1493.73 243.08 1525.54 243.08 1534.76 238.62 1534.01 238.25 1525.54 242.36"/><polygon class="cls-7" points="1478.18 254.88 1510 254.88 1510 245.96 1478.18 245.96 1468.97 250.42 1478.18 254.88"/><polygon class="cls-3" points="1469.71 250.06 1468.97 250.42 1478.18 254.88 1510 254.88 1510 254.16 1478.18 254.16 1469.71 250.06"/><rect class="cls-2" x="1511.58" y="235.88" width="5.47" height="5.47"/><circle class="cls-2" cx="1489.55" cy="250.42" r="2.74"/><circle class="cls-12" cx="1501.79" cy="238.33" r="1.58"/><circle class="cls-12" cx="1501.79" cy="250.13" r="1.58"/><path class="cls-2" d="M1491.14,275.23c0,3.23-1.93,4.36-4.3,4.36h-.16l-.33,0c-2.14-.15-3.8-1.33-3.8-4.34s4-7,4.28-7.33h0v0S1491.14,272,1491.14,275.23Z"/><path class="cls-7" d="M1486.69,279.1l1.57-2.2-1.58,2.44v.25l-.33,0,.17-3.23v0h0l0-.31-1.58-2.44,1.58,2.21v.07l.13-2.45-1.36-2.52,1.37,2.09.14-5.06v0l0,4,1.35-1.58-1.35,1.93,0,2.19,1.26-2.1-1.26,2.42,0,1.22,1.82-2.93-1.83,3.35Z"/><path class="cls-9" d="M713.79,263.12c.09,12.45-7.28,16.84-16.4,16.9h-.64c-.42,0-.84,0-1.25,0-8.24-.52-14.67-5-14.75-16.61-.08-12,15.11-27.2,16.25-28.32h0l.07-.07S713.7,250.68,713.79,263.12Z"/><path class="cls-2" d="M738,259.59c.1,14.17-8.28,19.17-18.67,19.24h-.72c-.48,0-1,0-1.43-.05-9.38-.6-16.7-5.75-16.79-18.92-.1-13.64,17.2-31,18.5-32.25h0l.08-.07S737.86,245.43,738,259.59Z"/><path class="cls-7" d="M718.59,276.67,725.4,267l-6.82,10.72v1.1c-.48,0-1,0-1.43-.05l.64-14.18v-.11l0,0,.06-1.34-7-10.64,7,9.64,0,.28.48-10.71-6-11,6,9.13.43-22.21v0l0,17.51,5.84-7-5.86,8.49-.08,9.59,5.43-9.24-5.45,10.65,0,5.33,7.9-12.87-7.91,14.73Z"/><path class="cls-5" d="M414.94,228.44c0,17.84-9.36,36.27-22.44,36.27s-23.69-6.23-23.69-24.07,23.69-40.53,23.69-40.53S414.94,210.61,414.94,228.44Z"/><polygon class="cls-7" points="383.79 249.87 392.48 263.31 392.76 280.98 395.16 280.98 393.37 246.77 393.37 246.63 393.36 246.6 393.27 244.92 401.98 231.45 393.24 243.65 393.22 244.01 392.51 230.53 399.97 216.61 392.39 228.21 392.46 229.41 391.69 200.11 391.81 222.25 384.39 213.5 391.84 224.14 392.04 236.22 392.04 236.22 385.11 224.63 392.06 237.99 392.18 244.71 382.12 228.58 392.21 247.05 392.45 261.98 383.79 249.87"/><path class="cls-4" d="M1806.48,162a10.45,10.45,0,0,0-2.16-2h4.52A7.58,7.58,0,0,0,1806.48,162Z"/><path class="cls-4" d="M1791.69,160h.78c-.17.12-.33.23-.49.36Z"/><path class="cls-5" d="M1812.46,159a7.44,7.44,0,0,1,3.63.94h-7.25A7.43,7.43,0,0,1,1812.46,159Z"/><path class="cls-5" d="M1798.39,158.07a10.26,10.26,0,0,1,5.93,1.88h-11.85A10.28,10.28,0,0,1,1798.39,158.07Z"/><path class="cls-5" d="M1718.68,146.2a19.23,19.23,0,0,1,37.73-4.06l.7,0a19.23,19.23,0,0,1,18.45,13.82,13.59,13.59,0,0,1,16.13,4h-60a13,13,0,0,1-13-13c0-.17,0-.34,0-.5S1718.67,146.29,1718.68,146.2Z"/><path class="cls-4" d="M151,139.43a10.77,10.77,0,0,0-2.16-2.05h4.52A7.61,7.61,0,0,0,151,139.43Z"/><path class="cls-4" d="M136.2,137.38H137l-.49.37C136.4,137.62,136.3,137.5,136.2,137.38Z"/><path class="cls-5" d="M157,136.45a7.43,7.43,0,0,1,3.63.93h-7.25A7.42,7.42,0,0,1,157,136.45Z"/><path class="cls-5" d="M142.9,135.51a10.25,10.25,0,0,1,5.93,1.87H137A10.27,10.27,0,0,1,142.9,135.51Z"/><path class="cls-5" d="M63.19,123.63a19.23,19.23,0,0,1,37.73-4l.7,0a19.22,19.22,0,0,1,18.45,13.81,13.59,13.59,0,0,1,16.13,4h-60a13,13,0,0,1-13-13c0-.16,0-.33,0-.5S63.18,123.73,63.19,123.63Z"/><path class="cls-4" d="M1886.42,156.5a9.2,9.2,0,0,1,1.84-1.74h-3.85A6.47,6.47,0,0,1,1886.42,156.5Z"/><path class="cls-4" d="M1899,154.76h-.66l.42.31Z"/><path class="cls-5" d="M1881.33,154a6.25,6.25,0,0,0-3.08.79h6.16A6.25,6.25,0,0,0,1881.33,154Z"/><path class="cls-5" d="M1893.3,153.17a8.76,8.76,0,0,0-5,1.59h10.08A8.71,8.71,0,0,0,1893.3,153.17Z"/><path class="cls-5" d="M1956.64,163.86a16.36,16.36,0,0,0-32.1-3.45H1924a16.36,16.36,0,0,0-15.7,11.75,11.56,11.56,0,0,0-13.72,3.41h51a11.07,11.07,0,0,0,11.1-11c0-.15,0-.29,0-.43S1956.64,163.94,1956.64,163.86Z"/><path class="cls-5" d="M310.59,124.32a16.36,16.36,0,0,0-32.09-3.44l-.6,0a16.37,16.37,0,0,0-15.7,11.75A11.55,11.55,0,0,0,248.49,136h51a11.07,11.07,0,0,0,11.1-11c0-.14,0-.28,0-.42A2.09,2.09,0,0,0,310.59,124.32Z"/><path class="cls-5" d="M1923.54,164.1c0,.14,0,.28,0,.43a11.07,11.07,0,0,0,11.1,11h51a11.55,11.55,0,0,0-13.72-3.41,16.36,16.36,0,0,0-15.7-11.75h-.59a16.36,16.36,0,0,0-32.1,3.45C1923.55,163.94,1923.54,164,1923.54,164.1Z"/><path class="cls-5" d="M3563.28,169.74a16.36,16.36,0,0,0-32.1-3.45l-.59,0a16.37,16.37,0,0,0-15.7,11.75,11.58,11.58,0,0,0-13.72,3.41h51a11.07,11.07,0,0,0,11.1-11c0-.14,0-.28,0-.42S3563.28,169.82,3563.28,169.74Z"/><path class="cls-5" d="M4266.84,119.13a16.36,16.36,0,0,0-32.1-3.45l-.6,0a16.38,16.38,0,0,0-15.69,11.75,11.57,11.57,0,0,0-13.72,3.42h51a11.08,11.08,0,0,0,11.1-11c0-.14,0-.28,0-.42A1.93,1.93,0,0,1,4266.84,119.13Z"/><path class="cls-5" d="M3530.18,170c0,.14,0,.28,0,.42a11.07,11.07,0,0,0,11.1,11h51a11.58,11.58,0,0,0-13.72-3.41,16.37,16.37,0,0,0-15.7-11.75l-.59,0a16.36,16.36,0,0,0-32.1,3.45C3530.19,169.82,3530.18,169.9,3530.18,170Z"/><path class="cls-5" d="M4237.42,119.37c0,.14,0,.28,0,.42a11.08,11.08,0,0,0,11.1,11h51a11.57,11.57,0,0,0-13.72-3.42,16.39,16.39,0,0,0-15.7-11.75l-.59,0a16.36,16.36,0,0,0-32.1,3.45C4237.43,119.21,4237.42,119.29,4237.42,119.37Z"/><path class="cls-5" d="M2464.85,150.29a16.36,16.36,0,0,0-32.1-3.44l-.6,0a16.37,16.37,0,0,0-15.69,11.75,11.56,11.56,0,0,0-13.72,3.41h51a11.05,11.05,0,0,0,11.09-11c0-.14,0-.28,0-.42A2,2,0,0,1,2464.85,150.29Z"/><path class="cls-5" d="M2431.75,150.54c0,.14,0,.28,0,.42a11.07,11.07,0,0,0,11.1,11h51a11.55,11.55,0,0,0-13.71-3.41,16.37,16.37,0,0,0-15.7-11.75l-.6,0a16.36,16.36,0,0,0-32.09,3.44A2.18,2.18,0,0,0,2431.75,150.54Z"/><path class="cls-7" d="M3510.09,176.08l11-4s-3.64-1.82-7-.43c-.72-1.85-2.48-4.18-6.76-3.71l5.51,4.41A8.43,8.43,0,0,0,3510.09,176.08Z"/><rect class="cls-13" x="3710.52" y="256.22" width="75.39" height="22.35"/><rect class="cls-14" x="3743.81" y="260.84" width="8.79" height="17.73"/><rect class="cls-13" x="3714.91" y="229.85" width="66.6" height="20.56"/><path class="cls-7" d="M3788.26,231.12h-80.1a.67.67,0,0,1-.67-.67.66.66,0,0,1,.2-.48l21.9-21.05v-9.16a.67.67,0,0,1,.67-.67h4.32a.67.67,0,0,1,.67.67v3.72l1.65-1.59a14.86,14.86,0,0,1,20.23-.33L3788.71,230a.67.67,0,0,1-.45,1.17Z"/><path class="cls-15" d="M3732.49,235.07h0a4.24,4.24,0,0,1,4.25,4.24v5.74h-8.5v-5.74A4.25,4.25,0,0,1,3732.49,235.07Z"/><path class="cls-15" d="M3748.21,235.14h0a4.24,4.24,0,0,1,4.24,4.25h0v5.73H3744v-5.73a4.25,4.25,0,0,1,4.25-4.25Z"/><path class="cls-15" d="M3763.93,235.22h0a4.24,4.24,0,0,1,4.24,4.24h0v5.74h-8.49v-5.74a4.24,4.24,0,0,1,4.25-4.24Z"/><path class="cls-15" d="M3770.18,260.62h0a4.24,4.24,0,0,1,4.25,4.24h0v5.74h-8.49v-5.74a4.24,4.24,0,0,1,4.24-4.24Z"/><path class="cls-15" d="M3728.17,260.62h0a4.24,4.24,0,0,1,4.25,4.24v5.74h-8.5v-5.74a4.25,4.25,0,0,1,4.25-4.24Z"/><path class="cls-7" d="M3796.91,256.57l-14.14-6.25a.48.48,0,0,0-.24-.06h-67.39a.59.59,0,0,0-.23.05l-15.39,6.26a.59.59,0,0,0,.22,1.14h4v20.56h-.45v2.09h89.84v-2.09h-.75V257.71h4.29a.59.59,0,0,0,.6-.59A.6.6,0,0,0,3796.91,256.57Zm-5.72,21.7h-86.26V257.71h86.26Z"/><rect class="cls-14" x="3726.9" y="244.23" width="10.88" height="1.79"/><rect class="cls-14" x="3742.85" y="244.23" width="10.88" height="1.79"/><rect class="cls-14" x="3758.79" y="244.23" width="10.88" height="1.79"/><rect class="cls-14" x="3764.75" y="270" width="10.88" height="1.79"/><rect class="cls-14" x="3722.58" y="270" width="10.88" height="1.79"/><path class="cls-7" d="M1013.32,270.92a28.94,28.94,0,0,0,1.24,3h0c.38.79.79,1.57,1.24,2.32h51.89v.1a26.74,26.74,0,0,0,1.3-2.42,28.94,28.94,0,0,0,1.24-3Zm1.31,3v-.48h54.3v.48Zm4,6.4h46.21a29.17,29.17,0,0,0,2.58-3.57h-51.37a29.17,29.17,0,0,0,2.58,3.57Z"/><path class="cls-7" d="M1071,268.21c-.18.76-.4,1.5-.64,2.23h-57.25c-.24-.73-.46-1.47-.64-2.23Z"/><path class="cls-7" d="M1071.08,268.07v-.34h-58.61v.34c-.2-.84-.37-1.69-.51-2.56h59.63C1071.45,266.38,1071.28,267.23,1071.08,268.07Z"/><path class="cls-7" d="M1011.86,262.32v.48h60c-.05.75-.12,1.49-.22,2.22h-59.77c-.1-.73-.17-1.46-.22-2.21s-.06-1.27-.06-1.92q0-.64,0-1.29h0c0-.91.12-1.81.23-2.71h0c.1-.74.23-1.48.38-2.21h59v-.44a26.13,26.13,0,0,1,.47,2.67H1012v.48h59.75c.08.67.14,1.35.17,2v.18h-60v.49h60c0,.27,0,.53,0,.8,0,.48,0,.95,0,1.43Z"/><path class="cls-7" d="M1071.19,254.19h-58.83c.17-.75.37-1.5.59-2.23h57.64v0Q1070.94,253.05,1071.19,254.19Z"/><path class="cls-7" d="M1070.44,251.48h-57.33c.3-.92.64-1.81,1-2.69v.46h55.29v-.46C1069.8,249.67,1070.14,250.56,1070.44,251.48Z"/><path class="cls-7" d="M1069.4,248.77h-55.26c.34-.76.7-1.5,1.1-2.22h53v-.13C1068.67,247.19,1069.05,248,1069.4,248.77Z"/><path class="cls-7" d="M1068,246.06H1015.5a30.17,30.17,0,0,1,52.54,0Z"/><path class="cls-16" d="M1012.47,268.07a.57.57,0,0,0,0,.14h0Z"/><path class="cls-16" d="M1071.08,268.07v.14h0A.57.57,0,0,0,1071.08,268.07Z"/><path class="cls-16" d="M1071.94,262.32v.48h-.06c0-.06,0-.12,0-.18l0-.3Z"/><path class="cls-16" d="M1071.94,259.6v.49h0c0-.16,0-.32,0-.49Z"/><path class="cls-16" d="M1071.2,254.19v0Z"/><path class="cls-16" d="M1014.13,248.77h0s0,0,0,0Z"/><path class="cls-16" d="M1069.42,248.77v0l0,0Z"/><rect class="cls-16" x="1017.21" y="243.35" width="49.13" height="0.48"/><rect class="cls-16" x="1019.24" y="240.65" width="45.19" height="0.48"/><rect class="cls-16" x="1022.01" y="237.94" width="39.52" height="0.48"/><rect class="cls-16" x="1025.03" y="235.26" width="32.87" height="0.48" transform="translate(-0.46 2.03) rotate(-0.11)"/><rect class="cls-5" x="1023" y="245.04" width="14.41" height="31.92"/><path class="cls-7" d="M1029.59,248.05h.61a3.38,3.38,0,0,1,3.38,3.39h0v4.8h-7.38v-4.8A3.39,3.39,0,0,1,1029.59,248.05Z"/><path class="cls-5" d="M1055.93,244.76h0a3.7,3.7,0,0,1,3.7,3.7v6h-7.39v-6A3.7,3.7,0,0,1,1055.93,244.76Z"/><path class="cls-5" d="M1070,257.08a8.43,8.43,0,0,1,0,.86h-28.15v-1.6h28.16A6,6,0,0,1,1070,257.08Z"/><path class="cls-17" d="M1045.81,251.67l.28-.42c-.08-.22-.18-.44-.28-.66l-.18.15.14-.22c-.13-.26-.24-.43-.24-.43a6,6,0,0,0-.73,1.78l.35.54-.39-.31c0,.11,0,.21,0,.32,0,1.09.35,2,.79,2s.79-.88.79-2a3.52,3.52,0,0,0-.18-1Z"/><path class="cls-17" d="M1047.75,252.61l.49-.1q.15-.33.27-.66l-.23,0,.26,0c.09-.28.13-.47.13-.47a6,6,0,0,0-1.78.74l-.13.63-.06-.5-.24.21c-.76.77-1.14,1.64-.83,2s1.18-.06,1.95-.83a3.27,3.27,0,0,0,.59-.84Z"/><path class="cls-5" d="M1047.93,256.81c-1.14.07-2.39,0-3.71,0v-3a13.56,13.56,0,0,0,3.71,0Z"/><path class="cls-17" d="M1064.41,251.67l.27-.42c-.08-.22-.18-.44-.28-.66l-.18.15.14-.22c-.13-.26-.24-.43-.24-.43a6.3,6.3,0,0,0-.73,1.78l.35.54-.39-.31c0,.11,0,.21,0,.32,0,1.09.36,2,.79,2s.79-.88.79-2a3.21,3.21,0,0,0-.18-1Z"/><path class="cls-17" d="M1066.34,252.61l.49-.1a6.11,6.11,0,0,0,.27-.66l-.23,0,.26,0c.09-.28.13-.47.13-.47a6,6,0,0,0-1.78.74l-.13.63,0-.5-.25.21c-.76.77-1.13,1.64-.83,2s1.19-.06,2-.83a3.27,3.27,0,0,0,.59-.84Z"/><path class="cls-5" d="M1066.52,256.81c-1.14.07-2.38,0-3.71,0v-3a13.56,13.56,0,0,0,3.71,0Z"/><ellipse class="cls-7" cx="1024.72" cy="261.94" rx="1.48" ry="1.24"/><circle class="cls-9" cx="1092.25" cy="183" r="34.61"/><path class="cls-11" d="M1118,159.88a34.62,34.62,0,0,1-57.68,36.64A34.62,34.62,0,1,0,1118,159.88Z"/><polygon class="cls-7" points="1092.35 183 1092.44 183 1094.15 281.14 1090.54 281.14 1092.35 183"/><rect class="cls-7" x="1084.85" y="231.04" width="7.37" height="1.95" transform="translate(17.25 533.82) rotate(-27.77)"/><path class="cls-11" d="M1071.71,261.21a28.27,28.27,0,0,1-2.35,11.29l-50-25.08-3.81-1.89,5.16-.29,44.7-2.44C1069.62,247.74,1071.71,254.18,1071.71,261.21Z"/><polygon class="cls-7" points="1077.74 245.53 1005.82 245.53 1005.82 239.73 1041.54 224.77 1077.74 239.73 1077.74 245.53"/><rect class="cls-18" y="280.03" width="4513.79" height="103.01"/><circle class="cls-10" cx="4335.57" cy="240.39" r="14.28"/><circle class="cls-10" cx="4320.37" cy="236.49" r="14.28"/><circle class="cls-10" cx="4303.65" cy="236.63" r="14.28"/><circle class="cls-10" cx="4298.22" cy="240.39" r="14.28"/><circle class="cls-10" cx="4289.02" cy="241.65" r="14.28"/><circle class="cls-10" cx="4285.25" cy="230.36" r="14.28"/><circle class="cls-10" cx="4289.43" cy="217.26" r="14.28"/><circle class="cls-10" cx="4297.38" cy="217.26" r="14.28"/><circle class="cls-10" cx="4301.98" cy="211.4" r="14.28"/><circle class="cls-10" cx="4313.68" cy="217.81" r="14.28"/><circle class="cls-10" cx="4341" cy="230.36" r="14.28"/><circle class="cls-10" cx="4332.78" cy="223.25" r="14.28"/><circle class="cls-10" cx="4327.48" cy="216.14" r="14.28"/><circle class="cls-10" cx="4317.45" cy="205.41" r="14.28"/><circle class="cls-10" cx="4336.12" cy="217.26" r="14.28"/><g class="cls-19"><circle cx="4335.57" cy="240.39" r="14.28"/><circle cx="4320.37" cy="236.49" r="14.28"/><circle cx="4303.65" cy="236.63" r="14.28"/><circle cx="4298.22" cy="240.39" r="14.28"/><circle cx="4289.02" cy="241.65" r="14.28"/><circle cx="4285.25" cy="230.36" r="14.28"/><circle cx="4289.43" cy="217.26" r="14.28"/><circle cx="4297.38" cy="217.26" r="14.28"/><circle cx="4301.98" cy="211.4" r="14.28"/><circle cx="4313.68" cy="217.81" r="14.28"/><circle cx="4341" cy="230.36" r="14.28"/><circle cx="4332.78" cy="223.25" r="14.28"/><circle cx="4327.48" cy="216.14" r="14.28"/><circle cx="4317.45" cy="205.41" r="14.28"/><circle cx="4336.12" cy="217.26" r="14.28"/></g><path class="cls-20" d="M4328.51,265.42s8.73-7.34,4.41-17.79L4328.6,246l-4.69,14.44Z"/><path class="cls-3" d="M4329,245.52l1,.38-4.6,14.17,4,4.35c-.33.33-.54.51-.54.51l-4.59-5Z"/><path class="cls-20" d="M4345.2,281l-2.78-3.36s-2.95-2.5-5.22-2.72c-.66-.07-1.21-.68-1.65-1.5a98.39,98.39,0,0,0-9-13.74c-2.44-3.17-4.49-6.51-4.3-8.6a115.6,115.6,0,0,0,0-13.17l-8.62-1.14s1.13,10.9-9.31,13.63-15.21-.23-15.21-.23l1.13,4.54s8,1,13.37.39a7,7,0,0,0,2.66-1,1.82,1.82,0,0,1,2.14.34c1.67,1.26,9.85,11.32,8.53,21.76a3.62,3.62,0,0,1-3.1,3.11h0a10.88,10.88,0,0,0-4.56,1.72"/><g class="cls-19"><path d="M4296.11,252.18s4.77,2.95,15.21.23,9.31-13.63,9.31-13.63l1.64.22c0-.7-.05-1.12-.05-1.12l-8.63-1.13s1.13,10.9-9.31,13.62-15.21-.23-15.21-.23l1.13,4.54s3.07.4,6.67.55Z"/><path d="M4315.63,283.51l.64-.42a10.85,10.85,0,0,1,4.57-1.73h0a3.62,3.62,0,0,0,3.1-3.1c1.33-10.43-6.86-20.51-8.53-21.77s-2.72.23-2.72.23a14.7,14.7,0,0,1-2,.37c2.94,3.92,7.15,11.42,6.17,19.13a3.61,3.61,0,0,1-3.1,3.09h0a11,11,0,0,0-4.56,1.73"/></g><path class="cls-10" d="M4353,254.48a.89.89,0,1,1-1,0c0-.88.23-1.6.51-1.6S4353,253.59,4353,254.48Z"/><path class="cls-10" d="M4313.55,253.7a3,3,0,0,1-.53,1.61,3.08,3.08,0,0,1-.52-1.61c0-.89.23-1.61.52-1.61S4313.55,252.81,4313.55,253.7Z"/><path class="cls-10" d="M4356.54,269.54a3,3,0,0,1,.52,1.6,3,3,0,0,1-1.37-1c-.52-.72-.75-1.44-.52-1.61S4356,268.82,4356.54,269.54Z"/><path class="cls-10" d="M4339.84,261.12a.89.89,0,1,1-1,0c0-.88.23-1.6.52-1.6S4339.84,260.24,4339.84,261.12Z"/><path class="cls-10" d="M4330.08,255.78a3,3,0,0,1-.52,1.61,3,3,0,0,1-.53-1.61c0-.88.24-1.6.53-1.6S4330.08,254.9,4330.08,255.78Z"/><path class="cls-10" d="M4324,259a3.06,3.06,0,0,1,.35,1.65,3,3,0,0,1-1.26-1.13c-.44-.77-.6-1.51-.35-1.66S4323.58,258.27,4324,259Z"/><path class="cls-10" d="M4319.5,273.8a3.1,3.1,0,0,1-1.53.72,3,3,0,0,1,.81-1.48c.65-.61,1.33-.93,1.53-.72S4320.14,273.19,4319.5,273.8Z"/><path class="cls-3" d="M4319.5,273.8a3.1,3.1,0,0,1-1.53.72,3,3,0,0,1,.81-1.48c.65-.61,1.33-.93,1.53-.72S4320.14,273.19,4319.5,273.8Z"/><path class="cls-10" d="M4329,272.89a3,3,0,0,1-1.53.72,3.08,3.08,0,0,1,.81-1.48c.65-.61,1.34-.93,1.53-.72S4329.65,272.28,4329,272.89Z"/><path class="cls-3" d="M4329,272.89a3,3,0,0,1-1.53.72,3.08,3.08,0,0,1,.81-1.48c.65-.61,1.34-.93,1.53-.72S4329.65,272.28,4329,272.89Z"/><path class="cls-10" d="M4330.82,282.52a3,3,0,0,1-1.53.72,3,3,0,0,1,.82-1.48c.64-.61,1.33-.93,1.53-.72S4331.47,281.91,4330.82,282.52Z"/><path class="cls-3" d="M4330.82,282.52a3,3,0,0,1-1.53.72,3,3,0,0,1,.82-1.48c.64-.61,1.33-.93,1.53-.72S4331.47,281.91,4330.82,282.52Z"/><circle class="cls-10" cx="4335.57" cy="237.19" r="14.28"/><circle class="cls-10" cx="4320.37" cy="233.28" r="14.28"/><circle class="cls-10" cx="4303.65" cy="233.42" r="14.28"/><circle class="cls-10" cx="4298.22" cy="237.19" r="14.28"/><circle class="cls-10" cx="4289.02" cy="238.44" r="14.28"/><circle class="cls-10" cx="4285.25" cy="227.15" r="14.28"/><circle class="cls-10" cx="4289.43" cy="214.05" r="14.28"/><circle class="cls-10" cx="4297.38" cy="214.05" r="14.28"/><circle class="cls-10" cx="4301.98" cy="208.2" r="14.28"/><circle class="cls-10" cx="4313.68" cy="214.61" r="14.28"/><circle class="cls-10" cx="4341" cy="227.15" r="14.28"/><circle class="cls-10" cx="4332.78" cy="220.04" r="14.28"/><circle class="cls-10" cx="4327.48" cy="212.94" r="14.28"/><circle class="cls-10" cx="4317.45" cy="202.2" r="14.28"/><circle class="cls-10" cx="4336.12" cy="214.05" r="14.28"/><path class="cls-3" d="M4349.79,216.29s-13.31-6.31-21.36,4.87"/><path class="cls-3" d="M4314.84,203.51s-14.71-.45-17.6,13"/><path class="cls-3" d="M4296.55,232.73s-13.3-6.31-21.35,4.87"/><circle class="cls-10" cx="4106.68" cy="242.77" r="14.28"/><circle class="cls-10" cx="4120.92" cy="236.19" r="14.28"/><circle class="cls-10" cx="4137.39" cy="233.32" r="14.28"/><circle class="cls-10" cx="4143.42" cy="236.04" r="14.28"/><circle class="cls-10" cx="4152.69" cy="235.61" r="14.28"/><circle class="cls-10" cx="4154.36" cy="223.83" r="14.28"/><circle class="cls-10" cx="4147.89" cy="211.7" r="14.28"/><circle class="cls-10" cx="4140.07" cy="213.13" r="14.28"/><circle class="cls-10" cx="4134.49" cy="208.2" r="14.28"/><circle class="cls-10" cx="4124.13" cy="216.62" r="14.28"/><circle class="cls-10" cx="4099.52" cy="233.87" r="14.28"/><circle class="cls-10" cx="4106.33" cy="225.4" r="14.28"/><circle class="cls-10" cx="4110.26" cy="217.46" r="14.28"/><circle class="cls-10" cx="4118.2" cy="205.09" r="14.28"/><circle class="cls-10" cx="4101.96" cy="220.11" r="14.28"/><g class="cls-19"><circle cx="4106.68" cy="242.77" r="14.28"/><circle cx="4120.92" cy="236.19" r="14.28"/><circle cx="4137.39" cy="233.32" r="14.28"/><circle cx="4143.42" cy="236.04" r="14.28"/><circle cx="4152.69" cy="235.61" r="14.28"/><circle cx="4154.36" cy="223.83" r="14.28"/><circle cx="4147.89" cy="211.7" r="14.28"/><circle cx="4140.07" cy="213.13" r="14.28"/><circle cx="4134.49" cy="208.2" r="14.28"/><circle cx="4124.13" cy="216.62" r="14.28"/><circle cx="4099.52" cy="233.87" r="14.28"/><circle cx="4106.33" cy="225.4" r="14.28"/><circle cx="4110.26" cy="217.46" r="14.28"/><circle cx="4118.2" cy="205.09" r="14.28"/><circle cx="4101.96" cy="220.11" r="14.28"/></g><path class="cls-20" d="M4107.61,280.05l.34-.75a6.49,6.49,0,0,1,3.33-2.31c.64-.18,1.07-.88,1.36-1.77a98.31,98.31,0,0,1,6.41-15.15c1.83-3.55,3.25-7.2,2.68-9.23a115.92,115.92,0,0,1-2.37-13l5.83-.22s3.3,8.47,14.06,9.27,10.37-5.47,10.37-5.47l2.72,2.51s-6.17,7.14-11.54,7.46a7,7,0,0,1-2.8-.47,1.82,1.82,0,0,0-2,.73c-1.41,1.53-7.65,12.9-4.47,22.93a3.6,3.6,0,0,0,3.61,2.5h0c1.64-.07,3.28,2.36,4.8,3"/><g class="cls-19"><path d="M4147.61,247.25s-4.16,3.77-14.92,3-11.61-11.73-11.61-11.73l-1.58.51c-.09-.69-.15-1.11-.15-1.11l8.29-2.67s.84,10.93,11.61,11.72,14.92-3,14.92-3l-.3,4.67s-2.94.95-6.46,1.74Z"/><path d="M4122.4,250.49c-1,4.09-3.13,7.76-4.83,11.75-1,2.44-1.86,5-3.06,7.38-.14.28-.31.58-.5.88a16.25,16.25,0,0,1-1.44,4.89c-.06.14-.14.27-.21.4a13,13,0,0,1,3.25.64,4,4,0,0,0,4.69-1.46C4126,266.51,4123.75,254.54,4122.4,250.49Z"/></g><path class="cls-10" d="M4092.07,259.76a3.06,3.06,0,0,0,.8,1.49,2.9,2.9,0,0,0,.23-1.67c-.16-.88-.51-1.54-.8-1.49S4091.92,258.89,4092.07,259.76Z"/><path class="cls-10" d="M4147.65,272.23a3.06,3.06,0,0,0,.8,1.49,3.12,3.12,0,0,0,.23-1.68c-.16-.87-.52-1.54-.8-1.48S4147.49,271.36,4147.65,272.23Z"/><path class="cls-10" d="M4130.73,251.89a3.08,3.08,0,0,0,.81,1.49,3,3,0,0,0,.22-1.68c-.16-.87-.52-1.54-.8-1.48S4130.57,251,4130.73,251.89Z"/><path class="cls-10" d="M4155.81,258.69a.89.89,0,1,0,.95.45c.38-.8.48-1.55.22-1.67S4156.2,257.89,4155.81,258.69Z"/><path class="cls-10" d="M4106.2,263.93a3,3,0,0,0,.81,1.48,3.07,3.07,0,0,0,.22-1.67c-.16-.87-.52-1.54-.8-1.49S4106,263.06,4106.2,263.93Z"/><path class="cls-10" d="M4114.85,256.92a3,3,0,0,0,.8,1.48,3,3,0,0,0,.22-1.67c-.16-.87-.52-1.54-.8-1.49S4114.69,256.05,4114.85,256.92Z"/><path class="cls-10" d="M4121.39,259a3,3,0,0,0,0,1.69,3.09,3.09,0,0,0,1-1.34c.3-.84.31-1.6,0-1.69S4121.68,258.19,4121.39,259Z"/><path class="cls-10" d="M4138.92,265.25a3.14,3.14,0,0,0,1.64.43,3.05,3.05,0,0,0-1.07-1.31c-.75-.48-1.48-.68-1.63-.43S4138.18,264.77,4138.92,265.25Z"/><path class="cls-10" d="M4119,273.55a3.11,3.11,0,0,0,1.63.43,3,3,0,0,0-1.06-1.31c-.75-.48-1.48-.67-1.64-.43S4118.24,273.07,4119,273.55Z"/><path class="cls-3" d="M4119,273.55a3.11,3.11,0,0,0,1.63.43,3,3,0,0,0-1.06-1.31c-.75-.48-1.48-.67-1.64-.43S4118.24,273.07,4119,273.55Z"/><path class="cls-10" d="M4157.88,275.4a3.14,3.14,0,0,0,1.64.43,3.05,3.05,0,0,0-1.07-1.31c-.75-.48-1.48-.68-1.64-.44S4157.13,274.92,4157.88,275.4Z"/><circle class="cls-10" cx="4106.1" cy="239.61" r="14.28"/><circle class="cls-10" cx="4120.34" cy="233.04" r="14.28"/><circle class="cls-10" cx="4136.81" cy="230.16" r="14.28"/><circle class="cls-10" cx="4142.84" cy="232.88" r="14.28"/><circle class="cls-10" cx="4152.11" cy="232.46" r="14.28"/><circle class="cls-10" cx="4153.78" cy="220.68" r="14.28"/><circle class="cls-10" cx="4147.31" cy="208.55" r="14.28"/><circle class="cls-10" cx="4139.5" cy="209.98" r="14.28"/><circle class="cls-10" cx="4133.92" cy="205.05" r="14.28"/><circle class="cls-10" cx="4123.56" cy="213.46" r="14.28"/><circle class="cls-10" cx="4098.95" cy="230.72" r="14.28"/><circle class="cls-10" cx="4105.75" cy="222.25" r="14.28"/><circle class="cls-10" cx="4109.68" cy="214.3" r="14.28"/><circle class="cls-10" cx="4117.62" cy="201.94" r="14.28"/><circle class="cls-10" cx="4101.38" cy="216.96" r="14.28"/><path class="cls-3" d="M4118.89,187.65s13.11,1.48,12.63,14.57"/><path class="cls-3" d="M4114.72,219.18s14.39-3.09,19.66,9.64"/><path class="cls-3" d="M4152.11,219.68s14.54,2.37,14.81,16.14"/><path class="cls-14" d="M4254.49,271.79l-3.07-1.36v-1.17h1.09a.82.82,0,0,0,.77-.56l.77-2.31a.82.82,0,0,0-.52-1,.73.73,0,0,0-.25,0h-1.86v-1.08h2.33a.83.83,0,0,0,.8-.64l.53-2.3a.82.82,0,0,0-.62-1l-.18,0h-2.86V260a.55.55,0,0,0-.55-.54.54.54,0,0,0-.54.54v.27h-19.22V260a.54.54,0,0,0-1.08,0v.27h-2.28a.82.82,0,0,0-.82.81,1.11,1.11,0,0,0,0,.19l.53,2.3a.83.83,0,0,0,.8.64H4230v1.08h-1.28a.81.81,0,0,0-.81.81.69.69,0,0,0,0,.25l.78,2.44a.83.83,0,0,0,.78.57h.49v1.05l-2.49,1.36a.82.82,0,0,0-.82.81h0a.82.82,0,0,0,.82.82H4230v6a.54.54,0,1,0,1.08,0v-6h19.22v6a.55.55,0,0,0,.54.55.56.56,0,0,0,.55-.55v-6h3.07a.82.82,0,0,0,.81-.82h0a.81.81,0,0,0-.81-.81Zm-23.38-7.55h19.22v1.08h-19.22Zm0,6.19v-1.05l19.22-.11v1.16Z"/><path class="cls-9" d="M54.73,225.43c.1,21.94-15.34,39.79-15.34,39.79S23.8,247.51,23.7,225.57,39,185.78,39,185.78,54.62,203.5,54.73,225.43Z"/><rect class="cls-7" x="38.48" y="217.44" width="1.59" height="62.73"/></g></g></g></svg>